<svg xmlns="http://www.w3.org/2000/svg" xmlns:xlink="http://www.w3.org/1999/xlink" viewBox="0 0 1033.69 1032.78"><defs><style>.cls-1{opacity:0.75;fill:url(#Degradado_sin_nombre_29);}.cls-2{fill:#faaf3b;}.cls-3{fill:#f6921e;}.cls-4{fill:#f05a24;}.cls-5{fill:url(#Degradado_sin_nombre_16);}.cls-6{fill:#c0272d;}</style><radialGradient id="Degradado_sin_nombre_29" cx="19347.57" cy="13675.31" r="1131.38" gradientTransform="matrix(-0.39, -0.23, 0.23, -0.39, 4939.11, 10398.99)" gradientUnits="userSpaceOnUse"><stop offset="0" stop-color="#fbed21"/><stop offset="1" stop-color="#fbed21" stop-opacity="0"/></radialGradient><radialGradient id="Degradado_sin_nombre_16" cx="1219.97" cy="-1216.03" r="324.2" gradientTransform="matrix(0.98, -0.2, 0.2, 0.98, -450.56, 1925.54)" gradientUnits="userSpaceOnUse"><stop offset="0"/><stop offset="1"/></radialGradient></defs><g id="Capa_2" data-name="Capa 2"><g id="Capa_2-2" data-name="Capa 2"><ellipse class="cls-1" cx="516.85" cy="516.39" rx="515.96" ry="517.16" transform="translate(-199.66 659.23) rotate(-56.25)"/><circle class="cls-2" cx="508.76" cy="494.89" r="378.17"/><path class="cls-3" d="M192.39,558.57C153.89,365,274.16,176.73,463.12,128.47c-7.82,1.05-15.65,2.31-23.49,3.87-200.19,39.82-330.2,234.39-290.39,434.58S383.63,897.13,583.82,857.31q9.95-2,19.66-4.48C411.77,878.45,230.65,750.93,192.39,558.57Z"/><path class="cls-3" d="M547.85,199.75q-7.64,1.51-15.1,3.43C680,183.51,819.12,281.46,848.5,429.2c29.57,148.67-62.81,293.3-207.94,330.36,6-.8,12-1.78,18-3,153.77-30.58,253.63-180,223-333.79S701.62,169.17,547.85,199.75Z"/><path class="cls-4" d="M267.22,258.11C410.55,122.46,634,124,775.43,258.23c-5-6.06-10.29-12-15.78-17.82C619.34,92.16,385.42,85.73,237.18,226S82.5,600.26,222.81,748.51q7,7.37,14.25,14.25C113.29,614.14,124.78,392.93,267.22,258.11Z"/><path class="cls-4" d="M773.78,357.38q-5.37-5.65-10.95-10.95c95.06,114.16,86.24,284.07-23.17,387.62C629.57,838.25,458,837.07,349.31,734c3.88,4.66,7.9,9.23,12.13,13.69,107.76,113.87,287.43,118.81,401.3,11S881.54,471.25,773.78,357.38Z"/><circle class="cls-5" cx="508.76" cy="494.89" r="324.2"/><circle class="cls-6" cx="510.2" cy="494.62" r="282.72"/><circle cx="509.92" cy="493.18" r="270.96"/><path class="cls-4" d="M136.56,568s-36,68.28,381.3-14.08,358.7-145.78,358.7-145.78S1065.85,388,958.39,509.22-328.49,775.39,136.56,568Z"/><path class="cls-2" d="M161.94,568.77S149.06,592,229.64,592c50.49,0,137.67-9.07,287.7-38.69,389.46-76.9,335.31-133.3,335.31-133.3s176.52-19.43,75.5,90S-272.92,758.06,161.94,568.77Z"/><path d="M209.86,591.94s50.55,75.55,371.37-9.49S815.36,451.4,815.36,451.4Z"/><path class="cls-3" d="M181.32,581.54s93.8,74.54,351.41,17.55c0,0-478.86,85.23-430.3,2.75,0,0,11.66,31.35,116.44,21.78C218.87,623.62,68.51,605.72,181.32,581.54Z"/><path class="cls-4" d="M838.15,452.69s24.36,54.56-162.72,122.22c0,0,160.1-14.91,249.79-111.37,0,0-33.81,26.78-71.17,40.27,0,0,36.66-32.82-1.4-83.76C852.65,420.05,865.59,431.22,838.15,452.69Z"/></g></g></svg>