<svg xmlns="http://www.w3.org/2000/svg" viewBox="0 0 635.66 549.53"><defs><style>.cls-1{fill:#f6f6f6;}.cls-2{fill:#fff;}.cls-3{fill:#aec6ce;}.cls-4{fill:#0071bb;}.cls-5{fill:#fedf6d;}.cls-6{fill:#f8aa48;}.cls-7{fill:#231f20;}.cls-8{fill:#878787;}.cls-9{fill:#e78c17;}.cls-10{fill:#f06c5f;}</style></defs><g id="Capa_2" data-name="Capa 2"><g id="Capa_2-2" data-name="Capa 2"><path class="cls-1" d="M306.64,297.89l6.66-11.47c24.89,14.44,50.06,20,74.84,16.57,22-3.07,42.37-13.24,58.9-29.42a113.32,113.32,0,0,0,14-16.68c-48.16-15.41-80.22-69.12-75.83-110.78,2.1-20,15.39-34.78,34.67-38.69,23.11-4.68,46.66,7.89,60,32a113.9,113.9,0,0,1,12.22,77.19,124.29,124.29,0,0,1-10.33,31c29.69,2.53,59.69-14.79,71.85-41.76,15.92-35.32-1.56-79.52-48-121.27-24.4-21.95-33.54-39.68-28-54.2C488.38,2.66,548.86,0,621.6,0h14.06V13.28h-9.83c-28.28,0-60.32-.08-87.2,3.13C502.84,20.67,492.48,29,490.1,35.16c-3.23,8.42,5.45,22.47,24.45,39.57,27.17,24.45,45.07,49.45,53.21,74.29,7.17,21.91,6.47,43.46-2,62.3C551,244,514.21,264.74,478.29,260.61c-1.16-.13-2.32-.29-3.47-.47a127.28,127.28,0,0,1-18.5,22.91c-19.57,19.16-48.5,34.17-82.53,34.17C353,317.22,330.27,311.6,306.64,297.89ZM422.55,120.43c-13.4,2.71-22.64,13.09-24.12,27.07-4.6,43.68,32.41,86.41,69.81,97.53a111.13,111.13,0,0,0,10.84-30.88,100.76,100.76,0,0,0-10.8-68.31c-9.07-16.42-23.77-26.11-38.81-26.11A34.57,34.57,0,0,0,422.55,120.43Z"/><path class="cls-2" d="M310.24,291.69c20.57,14,45.89,22.86,75.83,18.69,45.66-6.36,77.44-37.88,70.85-47.85l4.15-5.64a73.65,73.65,0,0,0,13.75,3.25c-7.17,11.83-17.77,22.19-18.5,22.91-19.57,19.16-48.5,34.17-82.53,34.17-20.81,0-43.52-5.62-67.15-19.33Z"/><path class="cls-2" d="M625.83,13.27c-28.28,0-60.32-.08-87.2,3.13C502.84,20.67,492.48,29,490.1,35.16c-3.23,8.42,5.45,22.47,24.45,39.57a248.14,248.14,0,0,1,27.14,28.34c-17.64-19.43-70.1-54-55.5-73.87S560.42,7.82,635.66,7.82v5.46Z"/><path class="cls-2" d="M427.17,116.72c36.32-2.61,55.31,41,57.17,70.77s-7.7,47.65-1.85,49.35a6.06,6.06,0,0,0,5.25-3.68,105.85,105.85,0,0,1-5.95,14.47,81,81,0,0,1-13.55-2.6l5.28-11.64a108.39,108.39,0,0,0,5.56-19.24,100.76,100.76,0,0,0-10.8-68.31c-9.07-16.42-23.77-26.11-38.81-26.11a34.57,34.57,0,0,0-6.92.7c-13.4,2.71-22.64,13.09-24.12,27.07A75.79,75.79,0,0,0,401.36,177c0-.1-.08-.2-.11-.3C395.26,157.57,390.85,119.32,427.17,116.72Z"/><path class="cls-3" d="M137.32,334.68c25.51,24.54,47.84,48.08,67.8,71.28,15.26,15.73,43.18,2.1,55.07-10.31C314.05,339.5,344.84,286,360.92,229c2.82-12.47-.46-32.25-17-40.2l-112.49-44.3c-19.4-7.29-36.74-1-37.86,14.36-4.89,49.26-23,92.94-58,138C125.64,308.67,125.94,324,137.32,334.68Z"/><path class="cls-3" d="M338.13,254c-4.18,11.9-5.42,22.31-2.76,23.24s8.19-8,12.37-19.86,5.41-22.3,2.76-23.24S342.3,242.06,338.13,254Z"/><path class="cls-4" d="M121.64,329.76c25.07,24.22,47,47.45,66.6,70.37,15,15.53,42.61,1.9,54.41-10.46,53.4-55.93,84-109.09,100.17-165.67,2.83-12.39-.32-32-16.6-39.8L215.39,140.78c-19.12-7.14-36.26-.87-37.44,14.41-5,48.87-23.07,92.26-57.9,137.08C110.23,304,110.46,319.23,121.64,329.76Z"/><path class="cls-3" d="M180.1,194.52c-56.09,11.89-69,16.26-99.76-35.11,0,0,3.12,26.5-37.13,58.45,0,0,13.43,60.49,90.38,54.05Z"/><path class="cls-3" d="M43.21,217.86c40.25-32,37.13-58.45,37.13-58.45,1.1-15.57,21,11.12,17.63,25.49s-21.16,52.3-41.31,59C48.36,246.68,34.53,221.74,43.21,217.86Z"/><path class="cls-4" d="M89.42,171.2c1.09-3.54-.29-11.56-1.65-17.75a17.47,17.47,0,0,0-9.1-11.76L45.06,124.46,28.23,142.64l4,6.1S18.19,159,6.1,189.84c0,0,5.73,36.07,32.88,34.56C62.44,223.1,85.56,183.74,89.42,171.2Z"/><path class="cls-3" d="M39,224.4c14.83-.82,29.51-16.84,39.29-31.69-4.35-14,.32-22.25.32-22.25L60.82,197a40.81,40.81,0,0,1-6-1.11s-12,18.57-16.74,19.8-25.65-7.79-32-25.82C6.1,189.84,11.83,225.91,39,224.4Z"/><path class="cls-3" d="M78.62,141.91a17.82,17.82,0,0,0-10.29,2.71,35.41,35.41,0,0,0-4.39,3,41,41,0,0,0-4,3.58,65.24,65.24,0,0,0-7,8.16,66.13,66.13,0,0,0-5.8,9,40.62,40.62,0,0,0-3.88,9.42c-.72,3.15-.55,5.48.88,7.67s4.16,4,7.18,5.36a45.49,45.49,0,0,0,9.84,2.93l-3,1.41L63,188.81l5-6.27c1.71-2.07,3.39-4.14,5.13-6.18l2.63-3,2.71-3,.36.25L61.1,197.16l-.12.17-.19,0a43.79,43.79,0,0,1-11-2.71c-3.5-1.43-7-3.45-9.21-6.67a11.94,11.94,0,0,1-2.06-5.42,15.86,15.86,0,0,1,.51-5.75,42.18,42.18,0,0,1,4.53-10.44A68.87,68.87,0,0,1,50,157,64,64,0,0,1,58,149a39.39,39.39,0,0,1,9.54-6.12,17.44,17.44,0,0,1,11.17-1.38Z"/><polygon class="cls-3" points="28.23 142.64 47.45 167.6 43.76 170.05 28.23 142.64"/><path class="cls-3" d="M6.1,189.84a38.83,38.83,0,0,0,9.84,14,48.5,48.5,0,0,0,14.36,9l2,.69,2,.56a18,18,0,0,0,2,.3c.3,0,.64.06.9,0a6.72,6.72,0,0,0,.7-.13c.21-.14.39-.18.64-.35l.73-.56c.48-.45,1-.88,1.44-1.39.94-1,1.85-2.08,2.72-3.19A155.67,155.67,0,0,0,53,194.66l3.71,2.41a161.35,161.35,0,0,1-10.81,13.87c-1,1.1-2,2.18-3.12,3.22a12,12,0,0,1-4.14,2.78,7.76,7.76,0,0,1-1.44.17,12.32,12.32,0,0,1-1.25-.12,19.86,19.86,0,0,1-2.3-.5c-.72-.25-1.44-.49-2.15-.75l-2.06-.88A49.88,49.88,0,0,1,15.17,204.6,39.36,39.36,0,0,1,6.1,189.84Z"/><path class="cls-3" d="M205.33,506.72l2.61,2.75a8.07,8.07,0,0,1,1.36,9.22c-4.73,9.22-17.08,27.56-41.71,30.77a8.13,8.13,0,0,1-5.92-1.55c-1.3-1-3.11-2.44-5.52-4.57Z"/><path class="cls-2" d="M145.58,376.75C105,359,57.1,378.63,62,428.44l-.51,23.36S37,457.24.25,437.41c0,0-.52-12.9,13.79-17.67,0,0-20.92-124.42,103.39-127.59Z"/><path class="cls-3" d="M61.53,451.8,28.26,431.68c.27-9.51,8.56-16,8.56-16C46.3,357.11,101,334,103.2,293.12l.64-.07c1.64-.12,6.35-.46,12.24-.84l1.35-.06,28.15,84.6C105,359,57.1,378.63,62,428.44Z"/><path class="cls-2" d="M335,246.47c15.76,24.38,6.95,55.93-40.93,84.77s-42,56.73-73.81,62.07C112.71,411.39,78.51,281.61,144,218.52Z"/><path class="cls-2" d="M262.68,356.74c-21.23,25.11-12.3,31.05-30.93,57.56s-42.15,42-26.42,92.42c0,0-5.35,29.82-49.18,36.62,0,0-11.45-11.75-3.4-26.59,0,0-43.16-76.76-4.75-150.13S262.68,356.74,262.68,356.74Z"/><path class="cls-3" d="M294.08,331.24a133.24,133.24,0,0,0-31.5,25.63c-21.1,25-12.23,31-30.83,57.43s-42.15,42-26.42,92.42c0,0-.37,4.59-5.54,12.24-7.76,8.88-13.67-9.1-13.67-9.1-17.53-45.42,11.18-74.51,21.31-108.44s38.36-56.06,57.81-84.9-1.69-54.95-1.69-54.95l52.39-17.89L335,246.47C350.77,270.85,342,302.4,294.08,331.24Z"/><path class="cls-5" d="M111.1,289.47c11.33,24.38,60.12,59.8,151.48,67.4L259.23,361s-118.83-8.19-148.52-62.42C110.71,298.58,110.87,292.06,111.1,289.47Z"/><path class="cls-6" d="M259.23,361s-10.9-.75-26.9-3.3c1.09-1.36,2.18-2.71,3.29-4.05,8.54,1.33,17.51,2.43,27,3.22-1.17,1.39-2.23,2.7-3.23,4Z"/><path class="cls-3" d="M.67,431.48c1.32-3.88,15.56-3.89,32.62.22s29.18,10.54,29.16,14.63c0,4.69-.42,5.94-.42,5.94,1-4-12.09-10.54-29.15-14.64S4.3,438,.25,437.41C-.32,433.67.19,432.89.67,431.48Z"/><path class="cls-4" d="M.25,437.41c-.95,4,12.1,10.54,29.16,14.64s31.66,4.2,32.62.22-12.09-10.54-29.15-14.64S1.21,433.43.25,437.41Z"/><path class="cls-3" d="M45.41,341.17c7.11-9.82,11.91-24.33,5.36-30.07C45,306,31.64,313.8,23.11,326s-8.64,27.2-2.3,31.63S38.3,351,45.41,341.17Z"/><path class="cls-3" d="M43.3,338c7.11-9.84,12.77-23.3,6.75-27.5s-19.39.91-27.92,13.14-9,26.95-3,31.15S36.2,347.81,43.3,338Z"/><path class="cls-3" d="M62.05,428.51c-6.48,3.13-35.64-13.71-48.52-8.59,0,0-3.09-1.87-4.24-10s3.42-9.41,3.42-9.41L12.63,402a87.25,87.25,0,0,1,31.24,6.47c15.42,6.55,18.78,2.21,18.78,2.21l.36-1.79s3.12-.27,2.38,3.66C64,419.73,67.2,426,62.05,428.51Z"/><path class="cls-4" d="M62.65,410.65l.36-1.79s3.12-.27,2.38,3.66c-1.36,7.21,1.81,13.51-3.34,16-4.14,2-17.53-4.15-30-7.52a26.33,26.33,0,0,1,4.8-5.29c.51-3.17,1.18-6.22,1.94-9.2,1.69.58,3.4,1.22,5.11,1.94C59.29,415,62.65,410.65,62.65,410.65Z"/><path class="cls-3" d="M130.15,461c3,14.84,10.88,25.51,19.56,23.78s14.8-15.2,11.85-30.05S147.66,429.28,139,431,127.19,446.14,130.15,461Z"/><path class="cls-3" d="M127.9,462.43c2.92,14.66,10.7,25.2,19.19,23.51s14.48-15,11.55-29.64S145,431.17,136.51,432.87,125,447.77,127.9,462.43Z"/><path class="cls-3" d="M202.23,494.54c-11.15,17.09-37.12,29.82-50.23,23.7-3.94-1.85-8.22-13.31-5.54-15l.8,1.91s30.4,1.62,52.93-26.58v-1.33s2.29-.36,2.92,2.44C204,483.86,204.6,490.91,202.23,494.54Z"/><path class="cls-4" d="M200.19,478.58v-1.33s2.29-.36,2.92,2.44c.94,4.17,1.5,11.22-.87,14.85a58.07,58.07,0,0,1-16,15.72l-.14-.4A83.62,83.62,0,0,1,181.86,495,72,72,0,0,0,200.19,478.58Z"/><path class="cls-3" d="M178.17,150.11c-4.06,19.21-14.35,33.29-23,31.47s-12.36-18.87-8.31-38.08,14.35-33.29,23-31.47S182.22,130.9,178.17,150.11Z"/><path class="cls-2" d="M342,187.9c-13.23,51.67-78.71,79.52-130.38,66.29S141.69,191.64,154.93,140s51.64-78.8,104.64-72.88C316.25,73.42,358.85,122.22,342,187.9Z"/><path class="cls-2" d="M160.1,209.74c22.28,20.94,94.55,41.11,156.5,16.78a5.24,5.24,0,0,1,6.22,2l12.19,18S280.53,271.1,216.18,257.8C157.74,245.72,144,218.52,144,218.52l8.81-8.69A5.25,5.25,0,0,1,160.1,209.74Z"/><path class="cls-3" d="M315.25,126.06c-30.53,21.61-23.46,78.5-23.46,78.5-12.55,22.17-43.77,33-43.77,33,20.37,4,15.59,23.81,15.53,24,41.6-1.62,71.45-15.1,71.46-15.1h0l-12.19-18a5.25,5.25,0,0,0-3.68-2.26c10.91-10.53,19.07-23.43,22.89-38.32,16.82-65.68-25.78-114.49-82.46-120.81C314.65,79.93,315.25,126.06,315.25,126.06Z"/><path class="cls-3" d="M285.58,259.74a215.51,215.51,0,0,1-35.45,2.66,193.89,193.89,0,0,1-35.45-3.72c-5.84-1.15-11.63-2.56-17.37-4.19-2.85-.91-5.71-1.75-8.51-2.82s-5.56-2.19-8.3-3.39a111.51,111.51,0,0,1-15.65-8.75c-2.46-1.69-4.85-3.5-7.14-5.42a68.46,68.46,0,0,1-6.39-6.24l.21-.21A99.54,99.54,0,0,0,166,237.79a124.42,124.42,0,0,0,15.74,7.79c2.7,1.14,5.41,2.25,8.17,3.22s5.53,2,8.31,2.9q8.39,2.69,17,4.67a191.58,191.58,0,0,0,35,4.55,214.64,214.64,0,0,0,35.37-1.47Z"/><path class="cls-3" d="M160.2,209.63A81.87,81.87,0,0,0,177.59,220a149.31,149.31,0,0,0,19,7.12,215.24,215.24,0,0,0,39.69,8.38,187.81,187.81,0,0,0,40.64.05,161.64,161.64,0,0,0,39.65-9.21l.11.28a162.76,162.76,0,0,1-39.59,10.39,189.59,189.59,0,0,1-41,.84A171.67,171.67,0,0,1,195.66,230a132.75,132.75,0,0,1-19-8.08,96.45,96.45,0,0,1-8.82-5.37,56.27,56.27,0,0,1-7.86-6.66Z"/><path class="cls-3" d="M196.36,210.57a29.66,29.66,0,0,0-4.69,7,14.59,14.59,0,0,0-1.28,7.51l.12.93-.78.4a22,22,0,0,0-4.81,3.5,17.81,17.81,0,0,0-3.57,4.65,14.67,14.67,0,0,0-1.7,5.65,18.87,18.87,0,0,0,.58,6.25l-.3.09a18.37,18.37,0,0,1-1.28-6.38,15.22,15.22,0,0,1,1.24-6.24,19.61,19.61,0,0,1,3.47-5.34,25.2,25.2,0,0,1,5-4.29l-.65,1.31a11.58,11.58,0,0,1-.3-4.65,11.13,11.13,0,0,1,1.67-4.35,15.85,15.85,0,0,1,3.05-3.6,16.26,16.26,0,0,1,4-2.67Z"/><ellipse class="cls-4" cx="315.98" cy="168.38" rx="43" ry="20.17" transform="translate(85.95 442.76) rotate(-78.08)"/><path class="cls-3" d="M341.27,137.18l-13.36-7.13h0a9.1,9.1,0,0,0-2.37-.86C315.33,127,303.31,143,298.71,164.74s0,41.19,10.18,43.35a8.77,8.77,0,0,0,2.23.18h0l15.35-1Z"/><path class="cls-2" d="M350.31,175.69c-4.09,19.36-14.76,33.49-23.84,31.58s-13.13-19.16-9-38.52,14.76-33.49,23.84-31.57S354.39,156.34,350.31,175.69Z"/><path class="cls-3" d="M336.62,172.74l11.17,5.88c-3.63,13.52-11,22.83-17,21.56-6.56-1.39-9.35-14.91-6.17-30s11.19-26.3,17.76-24.91c5.62,1.19,8.6,11.32,7.11,24.18Z"/><path class="cls-3" d="M338,173.1,349.16,179c-3.63,13.52-10.94,22.83-17,21.56-6.57-1.39-9.36-14.91-6.18-30s11.2-26.3,17.76-24.91c5.63,1.19,8.61,11.32,7.12,24.18Z"/><path class="cls-2" d="M179.59,107.35c-18.17,20.16-26.73,58.35-18.88,78.85,0,0,8,25.73,53.21,31.94,50.45,6.93,59.47-17.81,62.79-23.72,7.17-12.79,16.45-41.64,12.09-66.19C283.2,96.62,201.22,83.35,179.59,107.35Z"/><path class="cls-3" d="M177.87,104.51c-18.09,20.07-26.61,58.09-18.79,78.49,0,0,7.93,25.61,53,31.8,50.22,6.89,59.2-17.73,62.5-23.62,7.13-12.73,16.37-41.45,12-65.88C281,93.84,199.4,80.63,177.87,104.51Z"/><path class="cls-7" d="M179.51,106.76c-17.76,19.71-26.13,57-18.45,77.07,0,0,7.79,25.15,52,31.22,49.31,6.78,58.13-17.4,61.37-23.18,7-12.5,16.08-40.7,11.82-64.69C280.78,96.28,200.65,83.3,179.51,106.76Z"/><path class="cls-8" d="M184.42,206.71s23.76-5.24,54.08-23.9c31.89-19.63,48.78-46,48.78-46a75.15,75.15,0,0,0-.69-7.54s-20,29.54-52.56,48.8a270.84,270.84,0,0,1-56,25A64.87,64.87,0,0,0,184.42,206.71Z"/><path class="cls-8" d="M213.07,215.05c49.31,6.78,58.13-17.4,61.37-23.18,5.41-9.65,12-28.66,12.83-47.86,0,0-13,21.39-44.5,41.77-29.43,19.06-51.89,23.76-51.89,23.76A98.67,98.67,0,0,0,213.07,215.05Z"/><path class="cls-2" d="M200.88,113.88a33.41,33.41,0,0,0-8.93,2.9,18.48,18.48,0,0,0-3.66,2.43c-.5.42-1.14,1.12-1.7,1.66s-1.14,1.2-1.68,1.84A71.3,71.3,0,0,0,174.09,140a82.36,82.36,0,0,0-6.2,19.81c-1.11,6.83-1.49,14,.77,20.78a34.3,34.3,0,0,1-2.75-10.29,60.29,60.29,0,0,1-.22-10.75A85.7,85.7,0,0,1,170,138.33a76.74,76.74,0,0,1,9.71-19.71,48.56,48.56,0,0,1,3.55-4.51,25.47,25.47,0,0,1,4.76-4,41.21,41.21,0,0,1,10.74-4.83h0a4.43,4.43,0,0,1,2.59,8.47A3.74,3.74,0,0,1,200.88,113.88Z"/><path class="cls-2" d="M211.8,112.14a4.43,4.43,0,0,1,.61-8.77,99.71,99.71,0,0,1,12.87.24,4.42,4.42,0,0,1-.71,8.81,90.84,90.84,0,0,0-11.72-.21A4.56,4.56,0,0,1,211.8,112.14Z"/><path class="cls-2" d="M226.3,208.81c2.88-.86,5.72-1.62,8.5-2.53s5.5-1.89,8.13-3a68.12,68.12,0,0,0,7.65-3.81c1.24-.7,2.44-1.47,3.64-2.25L256,196c.57-.42,1.1-.76,1.62-1.21a36.74,36.74,0,0,0,5.77-6,73.76,73.76,0,0,0,4.81-7.11A158.16,158.16,0,0,0,276.05,166a64.94,64.94,0,0,1-4.95,17.24,49.31,49.31,0,0,1-4.46,8,33.48,33.48,0,0,1-6.22,7c-.6.51-1.3,1-1.92,1.45s-1.25.85-1.89,1.25c-1.29.8-2.6,1.59-4,2.3a47.72,47.72,0,0,1-8.47,3.51A50.6,50.6,0,0,1,226.3,208.81Z"/><path class="cls-2" d="M335,246.48c-45.28,5.78-54.92,60.7-27.79,76.07s4.25,39.89-8,45.16c-11.7,5-9,63.33,37,52.37,0,0,77.89-33.39,59.81-98.66C383.48,276.06,335,246.48,335,246.48Z"/><path class="cls-4" d="M299.26,367.71s-32.9,16.89-29.77,36.12,23.13,47.18,48.35,45.05c33.62-2.83,19.6-34.6,19.6-34.6Z"/><path class="cls-3" d="M340.27,426.31,289,374.08s-6.41,16.77,6,35.48a49.67,49.67,0,0,0,26.18,20.27,6,6,0,0,1,3,9.13,22.46,22.46,0,0,1-4.63,4.69c-8.08,6.13,17.12,7.61,20.47-11.22A38.34,38.34,0,0,0,340.27,426.31Z"/><path class="cls-2" d="M312.15,360.69c-.85-4.9-15.44,1.08-21.9,10.39-5.56,8,.22,45.41,34.43,55.57,22.38,6.64,28.82-16.14,28.82-16.14S320.22,407.34,312.15,360.69Z"/><path class="cls-3" d="M396.05,321.42c-12.57-45.36-61-74.94-61-74.94-5.36-.08-12.89,2.45-17,5.11.46.37,27.19,20.89,47.77,48.35,20.78,27.72.69,74-39.86,93.76,0,0,10.84,9.24-12.31,28.23a51.16,51.16,0,0,0,11.06,4.72c22.37,6.64,28.81-16.14,28.81-16.14C375.3,396.33,408.53,366.47,396.05,321.42Z"/><path class="cls-5" d="M319.24,335.62c14,4.13,65.82,5.93,77.91-9.7,0,0,2.64,11.25,1,22-4.08,9.76-56,10.15-78.28-9.1Z"/><path class="cls-9" d="M366.73,354.33A68.94,68.94,0,0,0,373,336.6c10.71-1.85,19.88-5.18,24.14-10.68a68.63,68.63,0,0,1,1.27,21.35c-.09.23-.16.45-.26.69C396.16,352.75,382.62,355.27,366.73,354.33Z"/><path class="cls-3" d="M353.5,410.51a35.77,35.77,0,0,1-16.57-5.36,47.66,47.66,0,0,1-13.11-11.81l-2.5-3.66a14.63,14.63,0,0,1-1.13-1.9l-1.05-1.95a57.8,57.8,0,0,1-3.5-8.08c-1-2.74-1.58-5.63-2.33-8.43-.46-2.88-.86-5.76-1.16-8.63.94,2.76,1.71,5.52,2.55,8.26l1.52,4a40.74,40.74,0,0,0,1.57,4,73.31,73.31,0,0,0,3.8,7.57c.74,1.2,1.31,2.5,2.15,3.63l2.43,3.44a55.63,55.63,0,0,0,12,11.67A47.88,47.88,0,0,0,353.5,410.51Z"/><path class="cls-3" d="M360.71,266.83c-20.69-18.06-32.39,12-12.46,31.9,16.4,16.41,38.16,6.61,33.86-6.81C382.11,291.92,372.77,277.36,360.71,266.83Z"/><path class="cls-4" d="M365.8,299.94a40.1,40.1,0,0,1,4.27,7.18c8.56-1.18,14.47-7.61,12-15.2-.3-.44-.59-.9-.89-1.33l0,0a153.4,153.4,0,0,0-20.49-23.74h0c-10.7-9.34-19-5.81-21.74,2.51A280.59,280.59,0,0,1,365.8,299.94Z"/><path class="cls-3" d="M142,244.31a59,59,0,0,0-21.41,30.34,29,29,0,0,0,2.43,7.56s13.17,21.35,53.55,32.38c0,0,8.54-24.64,21-41.58a7.09,7.09,0,0,0-2.43-7.56C186.1,262.38,162.59,260.18,142,244.31Z"/><path class="cls-2" d="M139.61,236.75s-13.9,13.74-19,37.9c0,0,13.17,21.35,53.55,32.38,0,0,8.54-24.64,21-41.58A180.61,180.61,0,0,1,139.61,236.75Z"/><path class="cls-3" d="M180.25,273.53a54.91,54.91,0,0,0-3.67,5.59c-1.15,1.92-2.15,3.91-3.13,5.92s-1.9,4-2.71,6.14-1.58,4.19-2.27,6.32l.89-.47c-3-1.06-6-2.39-9-3.74s-5.88-2.83-8.76-4.37-5.74-3.1-8.53-4.82l-4.2-2.55-4.15-2.63A130.83,130.83,0,0,0,151,290c2.86,1.63,5.77,3.17,8.76,4.57a85.54,85.54,0,0,0,9.16,3.78l.68.24.22-.7c.67-2.1,1.34-4.21,2.11-6.29s1.55-4.14,2.4-6.19,1.82-4,2.77-6S179.11,275.44,180.25,273.53Z"/><path class="cls-5" d="M142.74,268.5c-3.09,5.06-8.77,7.23-12.7,4.84s-4.59-8.44-1.5-13.51,8.77-7.23,12.7-4.83S145.83,263.43,142.74,268.5Z"/><path class="cls-3" d="M164.75,292.19a2.22,2.22,0,0,0,1-4.21l-10.27-5a2.22,2.22,0,0,0-1.93,4l10.27,5A2.21,2.21,0,0,0,164.75,292.19Z"/><path class="cls-4" d="M167.5,287.3a2.21,2.21,0,0,0,.91-4.23l-10.14-4.57a2.21,2.21,0,1,0-1.82,4l10.15,4.57A2.22,2.22,0,0,0,167.5,287.3Z"/><path class="cls-3" d="M170.45,282.69a2.21,2.21,0,0,0,.86-4.25l-10.05-4.21a2.21,2.21,0,1,0-1.7,4.08l10,4.21A2.34,2.34,0,0,0,170.45,282.69Z"/><path class="cls-10" d="M160.4,265.59c-1.7,2.78-4.82,4-7,2.66s-2.53-4.63-.83-7.41,4.82-4,7-2.66S162.09,262.81,160.4,265.59Z"/></g></g></svg>