<svg xmlns="http://www.w3.org/2000/svg" xmlns:xlink="http://www.w3.org/1999/xlink" viewBox="0 0 296.77 296.77"><defs><style>.cls-1{isolation:isolate;}.cls-2{opacity:0.75;fill:url(#Degradado_sin_nombre_23);}.cls-3{fill:url(#linear-gradient);}.cls-4{opacity:0.52;}.cls-5{fill:#b159c6;}.cls-6{fill:#e6e7e8;}.cls-6,.cls-7,.cls-9{mix-blend-mode:multiply;}.cls-7{fill:#7d63ea;opacity:0.4;}.cls-8{fill:#fff;mix-blend-mode:color-dodge;opacity:0.3;}.cls-9{fill:url(#Degradado_sin_nombre_15);}</style><radialGradient id="Degradado_sin_nombre_23" cx="12573.02" cy="16501.91" r="324.91" gradientTransform="matrix(-0.39, -0.23, 0.23, -0.39, 1254.82, 9567.34)" gradientUnits="userSpaceOnUse"><stop offset="0" stop-color="#92278e"/><stop offset="1" stop-color="#92278e" stop-opacity="0"/></radialGradient><linearGradient id="linear-gradient" x1="210" y1="215.15" x2="77.44" y2="71.25" gradientUnits="userSpaceOnUse"><stop offset="0" stop-color="#7d63ea"/><stop offset="1" stop-color="#bcb3ff"/></linearGradient><linearGradient id="Degradado_sin_nombre_15" x1="1228.63" y1="442.75" x2="1362.96" y2="577.08" gradientTransform="matrix(-0.64, 0.77, -0.77, -0.64, 1368.28, -522.72)" gradientUnits="userSpaceOnUse"><stop offset="0" stop-color="#fff"/><stop offset="0.04" stop-color="#efefef"/><stop offset="0.18" stop-color="#b8b8b7"/><stop offset="0.33" stop-color="#898988"/><stop offset="0.47" stop-color="#626260"/><stop offset="0.61" stop-color="#444442"/><stop offset="0.75" stop-color="#2e2e2c"/><stop offset="0.88" stop-color="#21211f"/><stop offset="1" stop-color="#1d1d1b"/></linearGradient></defs><g class="cls-1"><g id="Capa_2" data-name="Capa 2"><g id="Capa_2-2" data-name="Capa 2"><ellipse class="cls-2" cx="148.39" cy="148.39" rx="148.17" ry="148.52" transform="translate(-61.46 148.39) rotate(-45)"/><path class="cls-3" d="M244.91,148.52a96.29,96.29,0,1,1-96.29-96.29A96.29,96.29,0,0,1,244.91,148.52Z"/><g class="cls-4"><path class="cls-5" d="M97.78,179.12c-5.26-.88-15.54-7.11-22.24-9.59s-11.33-4.45-16.19-8.5a28.13,28.13,0,0,0-6.27-3.38q-.44-4.62-.44-9.38c0-.78,0-1.55,0-2.34,1.56,1.25,3,2.55,4.49,3.88,10.31,9.49,14.11,8,23.14,15C85.43,168.76,91.41,174.58,97.78,179.12Z"/><path class="cls-5" d="M244.5,148.27c0,2.19-.08,4.34-.21,6.49A68.93,68.93,0,0,1,231,146.33c-.84-.72-1.65-1.41-2.45-2.05-10.94-8.82-15.91-7.86-25-10-9.56-2.21-26.31-17.2-26.83-17.68.64.37,20.78,12.32,31.3,12.13,10.72-.21,16.38,7.87,24.27,10.61,2.61.9,6.25,2.24,10,3.65.69.26,1.4.53,2.11.78C244.46,145.28,244.5,146.78,244.5,148.27Z"/><path class="cls-5" d="M192.79,233.4c-1.92,1-3.89,2-5.89,2.82-2.28,1-4.6,1.92-7,2.73a.61.61,0,0,1-.14-.1c-1.15-1-2.26-1.92-3.35-2.78-15-12.09-21.74-10.78-34.14-13.66-13.06-3-35.95-23.49-36.66-24.14.86.48,28.39,16.85,42.76,16.56,14.66-.29,22.39,10.78,33.18,14.5C184.56,230.37,188.55,231.83,192.79,233.4Z"/><path class="cls-5" d="M153.75,244.05c-1.73.11-3.44.15-5.18.15-1.56,0-3.11,0-4.65-.11,0-.06-.11-.1-.17-.16-8.33-8.23-13.83-8.5-18.28-11.7a20.43,20.43,0,0,1-6.33-7.87,33,33,0,0,1,19,8.85C146.63,241.4,146.13,239.58,153.75,244.05Z"/><path class="cls-5" d="M234,192c-1,1.92-2.05,3.82-3.16,5.66a59.46,59.46,0,0,1-14.07-9.71c-9.86-9.73-16.38-10-21.62-13.83a24,24,0,0,1-7.48-9.29,38.92,38.92,0,0,1,22.47,10.46c10,9.67,9.44,7.52,18.43,12.79A38.45,38.45,0,0,1,234,192Z"/><path class="cls-5" d="M109,151.92a21.28,21.28,0,0,1,12.32,5.73c5.5,5.31,5.18,4.12,10.11,7s8.74,8.47,8.74,8.47-9.8-3.21-15.21-8.55-9-5.51-11.86-7.58A13.07,13.07,0,0,1,109,151.92Z"/><path class="cls-5" d="M70.34,172.79a21.35,21.35,0,0,1,12.32,5.73c5.5,5.31,5.18,4.13,10.11,7s8.74,8.46,8.74,8.46-9.8-3.21-15.21-8.54-9-5.51-11.86-7.59A13.07,13.07,0,0,1,70.34,172.79Z"/><path class="cls-5" d="M150.76,67.15a21.37,21.37,0,0,1,12.33,5.73c5.49,5.31,5.17,4.13,10.11,7s8.73,8.46,8.73,8.46-9.8-3.21-15.2-8.54-9-5.51-11.87-7.59A13.19,13.19,0,0,1,150.76,67.15Z"/><path class="cls-5" d="M126.06,74.83A137,137,0,0,1,102.5,64.12a92.62,92.62,0,0,1,9.69-4.64A89.38,89.38,0,0,1,126.06,74.83Z"/><path class="cls-5" d="M106.52,76.7s8.8.31,17.43,10.87S141.37,98.28,148.57,106c4.8,5.44,13.91,9.92,16.15,16.15-8-2.24-13.59-5.11-20.3-13.43s-11.13-7.35-18.36-11.19-6.43-8.79-10.74-12.79S106.52,76.7,106.52,76.7Z"/></g><path class="cls-6" d="M239,180.43c-.21.61-.44,1.25-.67,1.86-.13.38-.29.75-.44,1.11-.23.6-.48,1.19-.71,1.79-8.1-2.11-7.16-10.08-6.58-14.85.08-.75.17-1.46.21-2.11.12-1.58.17-2.65.17-3.4-.48.4-1,.9-1.42,1.32-1.92,1.87-4.29,4.17-7.19,5.24a20.32,20.32,0,0,1-5.85,1,8,8,0,0,1-6.72-3c-4.08-5.23-1.82-15.84,1.08-27.18,1.13-4.4,1.95-7.25,2.55-9.17-.87,1.19-1.42,3-2.15,5.58a34.52,34.52,0,0,1-3.47,8.75c-1.44,2.36-3.15,2.86-4.32,2.86-5.26,0-9.82-10.34-12-16.22l-.08,1.41c-1.17,23.25-9,35.93-23.21,37.72-1.21.11-2.34.17-3.46.17-25,0-28.16-27.21-29.85-41.83a61.86,61.86,0,0,0-1.23-8.09c-1.38-4.86-3.47-7.31-6.2-7.31a7.14,7.14,0,0,0-3.08.82c-5,2.75-5.51,6.89-6.07,12.13-.52,4.81-1.11,10.28-5.73,15.13-2.44,2.6-4.82,3.84-7.26,3.84-3.89,0-6.69-3.26-9-5.91-1.22-1.42-2.63-3-3.58-3.32a5.74,5.74,0,0,0-1.44-.23c-1.65,0-2.94,1.67-4.3,10-.21,1.73-.37,3.4-.5,4.95-.71,8-1.25,13.85-8.63,20.24-4.47,3.17-8.77,4.7-12.92,4.7a16.54,16.54,0,0,1-8.13-2.13q-.43-1.38-.81-2.76c-.09-.33-.17-.67-.27-1-.21-.77-.4-1.53-.55-2.32l1.3.56a18.52,18.52,0,0,0,7.18,1.49c9.4,0,16.54-7.42,17.32-18.05.67-8.81,2.48-20.55,10.48-20.55,4,0,7.94,3.11,11.15,5.6l.5.4a4.59,4.59,0,0,0,2.72,1.18c2.67,0,6-5.15,7.44-16.66,1-7.82,6.85-13.72,13.66-13.72,5,0,11.09,3.55,13.13,13.57l.11.53c3.55,17.56,8.41,41.64,26.13,41.64.23,0,.48,0,.73,0,14.76-.54,17.58-20.59,19.27-32.58,1-6.85,1.4-10,4.1-10,1.81,0,2.9,1.7,4.2,4.68,6.2,14.16,8.64,15.17,9.08,15.25,0-.06.94-.75,1.82-5.22,1.38-7,6.66-13.66,10.86-13.66a3.49,3.49,0,0,1,2.88,1.46c1.34,1.92,1.11,5.41-.73,10.69-4.14,11.83-3.72,23-.92,26.93a2.8,2.8,0,0,0,2.4,1.44,4.71,4.71,0,0,0,1.82-.44,33.71,33.71,0,0,0,6.08-3.7c1.88-1.36,3.13-2.27,4.53-2.27a2.73,2.73,0,0,1,2,.92c1.31,1.44,1.44,4.19.62,12.76A8,8,0,0,0,239,180.43Z"/><path class="cls-6" d="M238.28,182.29c-.13.38-.29.75-.44,1.11-7.79-1.88-5.54-10.09-5.16-15,.38-5.1.08-6.24-.56-6.31-2.09-.31-5.68,5.75-10.47,7.52-16.79,5.27-12.47-13.11-9-26.86s4.31-12.63,2.72-13.11c-6.23,1.29-5,9.75-9.28,16.79s-10.71-6.71-13.43-14.56-2.88-2.4-3.19,2.4-.48,34.38-21.58,37c-32.31,2.95-29.59-38.3-32.47-48.37s-8.48-9.44-12-7.68c-11.18,6.07-3.36,18.23-12.32,27.65S98,138.3,93.25,137s-6.56,1.59-8.15,11.3c-1.29,11-.33,17-8.48,24-9.31,6.55-16.33,4.32-20.61,1.27-.09-.33-.17-.67-.27-1,12.59,5.32,26-2.59,27.17-18.17,2-27.19,12.38-18.36,19-13.18s11.52-2.9,13.24-16.77,19.34-18.09,23,0,8.78,44.42,28.93,43.69c26.59-1,17.9-56.95,25.73-39s12.3,21.19,14.54,9.64,15.1-19.07,9.33-2.52-3.55,34.5,5.89,30.32,12.39-13.09,10.59,5.77A10.06,10.06,0,0,0,238.28,182.29Z"/><path class="cls-6" d="M233.22,103.11a16.37,16.37,0,0,1-2.75.23,18.21,18.21,0,0,1-4.31-.52c-14.22-3.43-21.22-11.07-25.43-15.64l-.65-.71a41.65,41.65,0,0,1-2.84-3.55c-2.28-3-4.43-5.92-7.17-5.92a5,5,0,0,0-1.69.3c-2.07.73-4.13,3-6.1,5.3-2.75,3.07-5.59,6.27-9.25,6.27a7.19,7.19,0,0,1-4.3-1.57c-4-3-5-7.31-5.95-11.15s-1.59-6.18-3.85-7.27a3.76,3.76,0,0,0-1.54-.44c-1.95,0-3,5.29-4,10.4-.25,1.26-.5,2.57-.79,3.87-1.66,7.87-4.77,22.51-17.36,23.68a15.94,15.94,0,0,1-1.67.08c-8.9,0-12-7-14.46-12.51-.46-1-.91-2-1.39-3-2.13-4.26-4.66-6.9-6.63-6.9a2.58,2.58,0,0,0-1.62.67c-1.11.9-2.09,3.22-3,5.45-1.76,4.14-3.78,8.82-8.27,9H98c-4.29,0-6.5-3.71-8.46-7A20.5,20.5,0,0,0,85.66,87a1.6,1.6,0,0,0-.87-.15c-3.05,0-8.8,2.65-14.23,5.6.86-1.21,1.74-2.38,2.68-3.55a91.51,91.51,0,0,1,8-8.94c.6-.61,1.21-1.19,1.84-1.76,5.36.76,9.35,4,11.63,9.45a29,29,0,0,0,3,5.88,40.72,40.72,0,0,0,1.47-4.09c1.52-4.74,3.42-10.63,7.87-12.57a10.25,10.25,0,0,1,4.14-.92c8.16,0,13.2,10.28,16.68,19.22,1.24,3.19,3.45,5,6.08,5,5.6,0,11.78-7.73,12.72-22.52.8-9.65,5.26-16.35,10.82-16.35,3.66,0,8.92,2.84,13.1,16.41,1,3.28,2,4.45,2.65,4.45,1.17,0,3.34-2,5.24-3.78,3.3-3,7.39-6.87,12.34-6.87,3.24,0,6.4,1.67,9.4,5,8.53,9.38,18.38,19.41,27.39,19.41a11.14,11.14,0,0,0,1.31-.07c.38.59.75,1.17,1.11,1.76.77,1.23,1.52,2.48,2.23,3.74C232.56,101.92,232.89,102.51,233.22,103.11Z"/><path class="cls-6" d="M232.24,101.32a15.76,15.76,0,0,1-5.64-.36c-14.39-3.47-21.11-11.47-25.1-15.79s-7.19-12-13.75-9.67-11,15.39-17.87,10.26-3.72-15.52-10.11-18.61-7,5.61-9,15.18-5.25,21.18-15.65,22.14-12.43-7.94-15.62-14.35-7.52-9.88-11.2-6.85-4.72,13.81-10.15,14S91.45,89.37,86.9,85.53c-2-1.68-7.81.45-13.66,3.36a91.51,91.51,0,0,1,8-8.94c4.86.19,9.21,2.44,11.69,8.42,8.32,20,6.08-5.93,14.87-9.76s14.6,7.83,18.26,17.25c4.61,11.85,20.9,7.31,22.51-18.1,1.28-15.46,12.85-23.17,20.16.52,5.93,19.19,15.33-16.71,30.05-.52,10,11,20.81,21.7,31.23,19.82C230.78,98.81,231.53,100.06,232.24,101.32Z"/><path class="cls-6" d="M213.82,218.59c-.48.44-1,.88-1.46,1.31-.88.8-1.76,1.55-2.67,2.28-.49.42-1,.82-1.49,1.21-2.48-2.5-3.72-6.28-3.67-11.25,0-2.8.21-5.52.39-8.17.67-9.73.8-15.85-4.26-18.92a10.88,10.88,0,0,0-5.7-1.61c-6.08,0-11.74,4.64-15,9C176.5,197,171.19,203,164.78,203c-3.05,0-6-1.36-8.71-4.05a30.09,30.09,0,0,1-5.47-8.65,20.44,20.44,0,0,0-2.84-5,3.8,3.8,0,0,0-2.88-1.48c-1.44,0-3.09.92-4.64,2.63-2,2.17-4.39,4.49-7.37,4.49-2.18,0-4.28-1.23-6.37-3.76-1.3-1.57-2.47-3.22-3.62-4.83-1.88-2.6-4.43-6.16-5.74-6.16-.77,0-2.76.88-5.49,7.86-.17.41-.36,1-.59,1.59-1.75,4.94-5.41,15.2-13.16,19.69a24.86,24.86,0,0,1-12.55,3.24,40.1,40.1,0,0,1-13.3-2.51c-.44-.56-.86-1.11-1.26-1.69-.29-.38-.56-.79-.83-1.17-.71-1-1.4-2-2-3s-1.19-1.86-1.75-2.8a44.7,44.7,0,0,0,17.16,3.93c7.75,0,14-2.86,18.51-8.54a59.81,59.81,0,0,0,4.24-8.59c3-6.75,5.74-13.14,11-13.14,3,0,6.12,2.18,9.71,6.9,4.66,6.14,6.72,7.06,7.54,7.06s1.55-1,2.53-2.09c1.63-1.84,3.88-4.39,7.79-4.72.33,0,.66,0,1,0,5.14,0,7.24,3.59,9.25,7.06,1.86,3.17,3.78,6.47,8.25,8.5a3.83,3.83,0,0,0,1.59.37c2.73,0,5.85-3.32,9.15-6.85,4.78-5.11,10.73-11.44,19.08-11.44a19.14,19.14,0,0,1,7.29,1.52C211.67,182,211.31,193,211,202.74,210.79,209.34,210.6,215.21,213.82,218.59Z"/><path class="cls-6" d="M212.36,219.9c-.88.8-1.76,1.55-2.67,2.28-1.74-1.67-3.3-4.68-3.24-10,.12-12.24,3.36-23.83-4.79-28.76s-17.75.58-23.26,7.89-13,14.22-21,6.33c-4.45-4.64-5.26-10.17-8.21-13.53s-7-2.61-10.38,1.12-6.48,6.08-10.84.8-7.69-11.87-11-11.68-5.76,5.56-7.14,9.07-4.78,15.6-12.93,20.32c-6.91,4-15.64,4.16-27-.46-.71-1-1.4-2-2-3,7.92,3,24.71,7.16,35.42-6.2,6.71-10.28,9.32-31.5,21.93-14.89s10.68,1.73,19.57,1,6.94,10.55,17.49,15.35,17.75-24.35,37.19-16.37C217,186.34,203.46,210.53,212.36,219.9Z"/><path class="cls-6" d="M198.32,230.31c-.56.35-1.14.67-1.69,1-.75.46-1.52.88-2.28,1.29l-1.56.82a.46.46,0,0,0-.13.08c-4-5.39-11-13.12-17.23-13.12a7.69,7.69,0,0,0-1.38.13c-5.32,1-8.33,5.24-11.25,9.3-2.61,3.65-5.06,7.08-9,7.28h-.21c-3.16,0-4.1-3.07-4.66-4.9-.1-.28-.19-.63-.31-.94-.61.5-1.63,1.5-2.41,2.29-2,2-4.55,4.52-7.64,5.83a15.52,15.52,0,0,1-6.06,1.23c-6.6,0-14.2-4.05-23.22-12.38a16.28,16.28,0,0,0-9.92-3.39,17,17,0,0,0-6.75,1.42c-.6-.44-1.19-.87-1.77-1.31-.88-.65-1.72-1.32-2.57-2-.53-.43-1.07-.87-1.61-1.33a28.72,28.72,0,0,1,13.64-4A18.21,18.21,0,0,1,113.46,223c6.35,6.22,13.1,12,19.43,12,3.67,0,7-2,10.36-6l.08-.12.1-.07c2.53-2.32,4-3.21,5.42-3.21,1.85,0,2.73,1.4,3.38,2.44a6.1,6.1,0,0,0,1.69,2,32.08,32.08,0,0,0,1.86-3.42c2.71-5.35,7.25-14.33,16.27-14.33C179.4,212.24,188,218.15,198.32,230.31Z"/><path class="cls-6" d="M196.63,231.29c-.75.46-1.52.88-2.28,1.29-3.92-5.39-12.51-15.56-20.67-14-11,2.15-13.31,16.21-19.93,16.54-3.42.15-2.52-6.62-4.91-6.08s-6,6.4-11,8.51-13,2.4-27.22-10.8a18.36,18.36,0,0,0-19.75-1.86c-.88-.65-1.72-1.32-2.57-2,4.68-2.58,15.33-6.81,23.79,1.45,11.21,10.94,22.07,18.62,32.62,5.82,6.54-6,4.28-.31,9,1.92S162.46,191.21,196.63,231.29Z"/><path class="cls-7" d="M244.45,148.4a95.94,95.94,0,0,1-166.4,65.1A99.59,99.59,0,0,0,220.55,85.07,95.5,95.5,0,0,1,244.45,148.4Z"/><path class="cls-8" d="M147.69,73.88c10,10.65,5.82,30.7-9.24,44.8s-35.36,16.89-45.32,6.24-5.82-30.7,9.25-44.8S137.73,63.23,147.69,73.88Z"/><circle class="cls-9" cx="147.38" cy="146.98" r="94.99"/></g></g></g></svg>