<svg xmlns="http://www.w3.org/2000/svg" xmlns:xlink="http://www.w3.org/1999/xlink" viewBox="0 0 234.43 234.43"><defs><style>.cls-1{isolation:isolate;}.cls-2{opacity:0.75;fill:url(#Degradado_sin_nombre_47);}.cls-3{fill:url(#linear-gradient);}.cls-4{fill:url(#linear-gradient-2);}.cls-5{fill:#ea9bae;}.cls-6{fill:#e2889b;}.cls-7,.cls-9{fill:#e086a0;}.cls-8{fill:#fff;mix-blend-mode:color-dodge;opacity:0.3;}.cls-10,.cls-9{mix-blend-mode:multiply;}.cls-9{opacity:0.4;}.cls-10{fill:url(#Degradado_sin_nombre_15);}</style><radialGradient id="Degradado_sin_nombre_47" cx="11636.68" cy="17694.74" r="256.66" gradientTransform="matrix(-0.39, -0.23, 0.23, -0.39, 579.18, 9787.76)" gradientUnits="userSpaceOnUse"><stop offset="0" stop-color="#ff7bab"/><stop offset="1" stop-color="#ff7bab" stop-opacity="0"/></radialGradient><linearGradient id="linear-gradient" x1="80.05" y1="75.97" x2="182.16" y2="175.93" gradientUnits="userSpaceOnUse"><stop offset="0" stop-color="#ffbbd4"/><stop offset="1" stop-color="#e288a1"/></linearGradient><linearGradient id="linear-gradient-2" x1="112.23" y1="105.94" x2="147.92" y2="143.6" xlink:href="#linear-gradient"/><linearGradient id="Degradado_sin_nombre_15" x1="63.47" y1="58.67" x2="174.97" y2="170.17" gradientUnits="userSpaceOnUse"><stop offset="0" stop-color="#fff"/><stop offset="0.04" stop-color="#efefef"/><stop offset="0.18" stop-color="#b8b8b7"/><stop offset="0.33" stop-color="#898988"/><stop offset="0.47" stop-color="#626260"/><stop offset="0.61" stop-color="#444442"/><stop offset="0.75" stop-color="#2e2e2c"/><stop offset="0.88" stop-color="#21211f"/><stop offset="1" stop-color="#1d1d1b"/></linearGradient></defs><g class="cls-1"><g id="Capa_2" data-name="Capa 2"><g id="Capa_2-2" data-name="Capa 2"><ellipse class="cls-2" cx="117.21" cy="117.21" rx="117.05" ry="117.32" transform="translate(-48.55 117.21) rotate(-45)"/><path class="cls-3" d="M198.14,114.39A78.84,78.84,0,1,1,119.3,35.55,78.83,78.83,0,0,1,198.14,114.39Z"/><path class="cls-4" d="M195.14,94.53C163.36,122.25,123,147.41,53.21,156.82a76.77,76.77,0,0,1-8.46-17.44,78.43,78.43,0,0,1-4.18-23.12c20.13,1.49,74.28-.62,138-53.46a78.19,78.19,0,0,1,14.84,26Q194.4,91.65,195.14,94.53Z"/><path class="cls-5" d="M163.53,49.33C146.47,64.16,106.67,91.5,43.27,93.54a79.71,79.71,0,0,1,4.34-12,283.86,283.86,0,0,0,102.28-39.7A78.26,78.26,0,0,1,163.53,49.33Z"/><path class="cls-5" d="M174.7,58.61c-20.11,14.89-73.65,49.69-133.89,49,.17-2.16.45-4.32.79-6.45A217.43,217.43,0,0,0,169.21,53.62C171.12,55.19,172.94,56.85,174.7,58.61Z"/><path class="cls-6" d="M197.55,110.71a77.66,77.66,0,0,1-2.47,23.17h0c-15.08,13.91-52.76,42.73-112.2,49.88a78.46,78.46,0,0,1-19.28-14.11C90.52,168.11,158.27,159.32,197.55,110.71Z"/><path class="cls-6" d="M196.53,101c.34,2,.6,4,.78,6-11.54,12.54-54.18,52.15-137.67,58.39-.89-1-1.76-2.08-2.59-3.16C83.12,159.67,155.15,148.44,196.53,101Z"/><path class="cls-6" d="M193.52,139.13A80,80,0,0,1,187.28,153v0c-12.51,11.23-41.59,32.09-88.92,36.8a80.5,80.5,0,0,1-11.42-4.11C96.9,185.31,152,181.16,193.52,139.13Z"/><path class="cls-7" d="M47,117.06s3.42-8.92,7.39-4.46,4.62,8.25-1,10.16S44.45,122.57,47,117.06Z"/><path class="cls-7" d="M56.85,129.76s2.39-6.24,5.17-3.12,3.23,5.77-.7,7.1S55.09,133.61,56.85,129.76Z"/><path class="cls-7" d="M172,80.43s1.82-4.72,3.92-2.36,2.45,4.37-.53,5.39S170.65,83.35,172,80.43Z"/><path class="cls-7" d="M62.9,121.37a4,4,0,0,1-1.27-3.26c.31-.82,2.87-1.36,3.52.35S63.73,121.81,62.9,121.37Z"/><path class="cls-7" d="M56.52,73.72a4,4,0,0,1-1.27-3.26c.31-.81,2.87-1.36,3.52.36S57.35,74.16,56.52,73.72Z"/><path class="cls-7" d="M184.9,110.61a4,4,0,0,1-1.27-3.26c.3-.81,2.86-1.36,3.51.35S185.73,111.05,184.9,110.61Z"/><path class="cls-7" d="M126,141.78a4,4,0,0,1-1.27-3.26c.3-.81,2.86-1.36,3.51.36S126.81,142.22,126,141.78Z"/><path class="cls-7" d="M49.7,132.84a4,4,0,0,1-1.28-3.26c.31-.81,2.87-1.36,3.52.36S50.52,133.28,49.7,132.84Z"/><path class="cls-7" d="M174.59,69.27A4,4,0,0,1,173.32,66c.31-.81,2.87-1.36,3.51.36S175.42,69.71,174.59,69.27Z"/><path class="cls-7" d="M102,43.89a4,4,0,0,1-1.28-3.26c.31-.81,2.87-1.36,3.52.35S102.77,44.33,102,43.89Z"/><path class="cls-7" d="M75.69,120.47s-2.24-6.83,3.4-5,2.2,5.19-.36,6.41A2,2,0,0,1,75.69,120.47Z"/><path class="cls-7" d="M100.08,107.09s-2.24-6.83,3.39-5,2.2,5.19-.36,6.41A2,2,0,0,1,100.08,107.09Z"/><path class="cls-7" d="M72.25,86.62s-2.24-6.83,3.4-5,2.2,5.19-.36,6.41A2,2,0,0,1,72.25,86.62Z"/><path class="cls-7" d="M111.31,44s6.17-3.69,5.58,2.22-4.58,3.29-6.33,1.06A2,2,0,0,1,111.31,44Z"/><path class="cls-7" d="M70.91,126.77s-1-.34-1.36,1.11,1.18,1.38,1.71.39A1.07,1.07,0,0,0,70.91,126.77Z"/><path class="cls-7" d="M133.7,38.88s-1-.34-1.37,1.11,1.18,1.37,1.72.39A1.07,1.07,0,0,0,133.7,38.88Z"/><path class="cls-7" d="M172.92,111.87s-1-.34-1.37,1.11,1.18,1.38,1.71.39A1.07,1.07,0,0,0,172.92,111.87Z"/><path class="cls-7" d="M74.41,70.12s-1-.34-1.37,1.11,1.18,1.38,1.71.39A1.07,1.07,0,0,0,74.41,70.12Z"/><path class="cls-7" d="M148.6,82.64s-1-.34-1.37,1.11,1.18,1.38,1.72.39A1.07,1.07,0,0,0,148.6,82.64Z"/><path class="cls-7" d="M81.7,155.13s-1-.34-1.36,1.11,1.18,1.38,1.71.39A1.07,1.07,0,0,0,81.7,155.13Z"/><path class="cls-7" d="M122.69,124.44s-1-.34-1.37,1.12,1.18,1.37,1.72.38A1.07,1.07,0,0,0,122.69,124.44Z"/><path class="cls-7" d="M167.26,170.39s-1-.34-1.37,1.12,1.18,1.37,1.72.38A1.07,1.07,0,0,0,167.26,170.39Z"/><path class="cls-7" d="M97.81,54.71s-1-.34-1.36,1.11,1.18,1.38,1.71.39A1.07,1.07,0,0,0,97.81,54.71Z"/><path class="cls-7" d="M58.66,145.29s-1,5,1.65,3.13,1.88-2.26.44-3.86C59.74,143.58,59,144.54,58.66,145.29Z"/><path class="cls-7" d="M132,104.56s1.31,5,2.87,2.09.69-2.86-1.31-3.66C132.23,102.55,132,103.73,132,104.56Z"/><path class="cls-7" d="M139.75,183.68s1.31,4.95,2.86,2.09.69-2.87-1.3-3.66C140,181.67,139.75,182.85,139.75,183.68Z"/><path class="cls-7" d="M73.11,153.82S68.47,156,71.57,157s2.94.17,3.37-1.94C75.13,153.67,73.92,153.67,73.11,153.82Z"/><path class="cls-7" d="M146.91,112.51s4.17,3,3.55-.2-1.29-2.65-3.34-2C145.81,110.82,146.39,111.87,146.91,112.51Z"/><path class="cls-7" d="M96.74,180s-1-.34-1.37,1.11,1.18,1.38,1.72.39A1.07,1.07,0,0,0,96.74,180Z"/><path class="cls-7" d="M106.06,160.14s1.31,5,2.87,2.09.69-2.87-1.31-3.66C106.28,158.13,106.06,159.31,106.06,160.14Z"/><path class="cls-7" d="M121,168.09s4.17,3,3.55-.21-1.29-2.64-3.34-2C119.86,166.4,120.44,167.45,121,168.09Z"/><path class="cls-7" d="M91.52,135.49s-8.88-.66-5.64-5,6.13-3.65,7.46-1.76S94.92,136.14,91.52,135.49Z"/><path class="cls-7" d="M138.27,135.77s1.49-8.78,5.48-5.14,3.06,6.45,1.06,7.59S137.3,139.09,138.27,135.77Z"/><path class="cls-7" d="M159.81,84.07s-9.29-6.49-2.93-9.11,9.09,0,9.32,2.92S163.11,87,159.81,84.07Z"/><path class="cls-8" d="M107.84,54.6c8.16,8.72,4.77,25.14-7.57,36.68s-28.95,13.83-37.1,5.11S58.4,71.25,70.74,59.71,99.68,45.88,107.84,54.6Z"/><path class="cls-9" d="M197.44,114A78.54,78.54,0,0,1,61.2,167.26,81.54,81.54,0,0,0,177.88,62.12,78.18,78.18,0,0,1,197.44,114Z"/><circle class="cls-10" cx="119.22" cy="114.42" r="78.84"/></g></g></g></svg>