<svg xmlns="http://www.w3.org/2000/svg" xmlns:xlink="http://www.w3.org/1999/xlink" viewBox="0 0 249.96 249.96"><defs><style>.cls-1{isolation:isolate;}.cls-2{opacity:0.75;fill:url(#Degradado_sin_nombre_36);}.cls-3{fill:url(#linear-gradient);}.cls-4{fill:#f1f2f2;}.cls-4,.cls-6,.cls-8{mix-blend-mode:multiply;}.cls-5,.cls-7{fill:#fff;}.cls-6{fill:#319b86;opacity:0.4;}.cls-7{mix-blend-mode:color-dodge;opacity:0.3;}.cls-8{fill:url(#Degradado_sin_nombre_15);}</style><radialGradient id="Degradado_sin_nombre_36" cx="9387.94" cy="16614.72" r="273.67" gradientTransform="matrix(-0.39, -0.23, 0.23, -0.39, -45.29, 8847.37)" gradientUnits="userSpaceOnUse"><stop offset="0" stop-color="#22b473"/><stop offset="1" stop-color="#22b473" stop-opacity="0"/></radialGradient><linearGradient id="linear-gradient" x1="166.04" y1="167.92" x2="46.5" y2="38.15" gradientUnits="userSpaceOnUse"><stop offset="0" stop-color="#319b86"/><stop offset="1" stop-color="#98ff8d"/></linearGradient><linearGradient id="Degradado_sin_nombre_15" x1="-552.97" y1="24.41" x2="-429.01" y2="148.38" gradientTransform="matrix(-0.64, 0.77, -0.77, -0.64, -123.59, 556.24)" gradientUnits="userSpaceOnUse"><stop offset="0" stop-color="#fff"/><stop offset="0.04" stop-color="#efefef"/><stop offset="0.18" stop-color="#b8b8b7"/><stop offset="0.33" stop-color="#898988"/><stop offset="0.47" stop-color="#626260"/><stop offset="0.61" stop-color="#444442"/><stop offset="0.75" stop-color="#2e2e2c"/><stop offset="0.88" stop-color="#21211f"/><stop offset="1" stop-color="#1d1d1b"/></linearGradient></defs><g class="cls-1"><g id="Capa_2" data-name="Capa 2"><g id="Capa_2-2" data-name="Capa 2"><ellipse class="cls-2" cx="124.98" cy="124.98" rx="124.8" ry="125.09" transform="translate(-51.77 124.98) rotate(-45)"/><path class="cls-3" d="M211.48,123a86.84,86.84,0,1,1-86.84-86.84A86.84,86.84,0,0,1,211.48,123Z"/><path class="cls-4" d="M120.52,57.81s9.08-9.48,19.46-.25,8.51,19.61,2,21-16.29-3.89-22.06-9.22S120.52,57.81,120.52,57.81Z"/><path class="cls-5" d="M120.52,56.12s9.08-9.48,19.46-.25,8.51,19.61,2,21.05S125.71,73,119.94,67.69,120.52,56.12,120.52,56.12Z"/><path class="cls-4" d="M153.13,77.76s8.44-3.18,10.52,3.18.12,9.91-4.28,10.65-7.59-6-8.44-8.69S151.48,78.23,153.13,77.76Z"/><path class="cls-5" d="M153.37,76.6s8.44-3.18,10.52,3.18.12,9.91-4.28,10.64-7.58-6-8.44-8.68S151.72,77.06,153.37,76.6Z"/><path class="cls-4" d="M89.61,128.23s8.44-3.18,10.52,3.18.12,9.91-4.28,10.64-7.59-6-8.44-8.68S88,128.69,89.61,128.23Z"/><path class="cls-5" d="M89.85,127.07s8.44-3.18,10.52,3.18.12,9.9-4.28,10.64-7.58-6-8.44-8.69S88.2,127.53,89.85,127.07Z"/><path class="cls-4" d="M116.27,86s-1.59-6.33,3.15-7.3,7.13.73,7.29,4-4.93,4.95-6.93,5.35A2.77,2.77,0,0,1,116.27,86Z"/><path class="cls-5" d="M115.45,85.72s-1.59-6.33,3.15-7.3,7.13.73,7.3,4-4.93,5-6.94,5.34A2.77,2.77,0,0,1,115.45,85.72Z"/><path class="cls-4" d="M131.82,87.91s-.7-4.16,3.51-4.76,6.44,5.2,5.09,8.93-5.41,1.29-6.6,0A7.12,7.12,0,0,1,131.82,87.91Z"/><path class="cls-5" d="M132.62,87.53s-.71-4.16,3.51-4.75,6.43,5.19,5.08,8.92-5.41,1.29-6.6,0A7,7,0,0,1,132.62,87.53Z"/><path class="cls-4" d="M92.61,69.64a3.09,3.09,0,0,1-4.53-1.36c-1.82-3.16,1.55-6.63,4.64-6.67s2.71,3.89,2.18,5.22A5.18,5.18,0,0,1,92.61,69.64Z"/><path class="cls-5" d="M92.08,69.13a3.09,3.09,0,0,1-4.53-1.37c-1.82-3.16,1.55-6.63,4.64-6.66S94.9,65,94.37,66.31A5.2,5.2,0,0,1,92.08,69.13Z"/><path class="cls-4" d="M165.62,125.92a1.71,1.71,0,0,1-2.5-.75c-1-1.74.86-3.64,2.56-3.66s1.49,2.13,1.2,2.86A2.9,2.9,0,0,1,165.62,125.92Z"/><path class="cls-5" d="M165.08,125.35a1.7,1.7,0,0,1-2.49-.75c-1-1.73.85-3.64,2.55-3.66s1.49,2.14,1.2,2.86A2.9,2.9,0,0,1,165.08,125.35Z"/><path class="cls-4" d="M107.37,156.06a1.71,1.71,0,0,1-2.5-.75c-1-1.74.86-3.64,2.56-3.66s1.49,2.13,1.2,2.86A2.9,2.9,0,0,1,107.37,156.06Z"/><path class="cls-5" d="M106.83,155.49a1.7,1.7,0,0,1-2.49-.75c-1-1.73.85-3.64,2.55-3.66s1.49,2.14,1.2,2.87A2.87,2.87,0,0,1,106.83,155.49Z"/><path class="cls-4" d="M177.15,111a3,3,0,0,1-4.38-1.18c-1.71-2.91,1.64-6.21,4.65-6.31s2.55,3.57,2,4.82A5.24,5.24,0,0,1,177.15,111Z"/><path class="cls-5" d="M176.22,110.05a3,3,0,0,1-4.38-1.18c-1.7-2.91,1.64-6.21,4.65-6.31s2.55,3.58,2,4.83A5.22,5.22,0,0,1,176.22,110.05Z"/><path class="cls-4" d="M84.12,148.17A3,3,0,0,1,79.74,147c-1.7-2.91,1.64-6.21,4.65-6.31s2.55,3.58,2,4.82A5.2,5.2,0,0,1,84.12,148.17Z"/><path class="cls-5" d="M83.19,147.23a3,3,0,0,1-4.38-1.18c-1.7-2.91,1.64-6.22,4.65-6.31s2.55,3.57,2,4.82A5.29,5.29,0,0,1,83.19,147.23Z"/><path class="cls-4" d="M154.71,65.61a2.68,2.68,0,0,1,2.34-3.18c2.82-.4,4.3,3.47,3.4,6s-3.61.87-4.41,0A4.71,4.71,0,0,1,154.71,65.61Z"/><path class="cls-5" d="M155.24,65.36a2.68,2.68,0,0,1,2.34-3.18c2.82-.4,4.3,3.47,3.4,6s-3.61.87-4.41,0A4.76,4.76,0,0,1,155.24,65.36Z"/><path class="cls-4" d="M175.54,125.2a3.51,3.51,0,0,1,3.08-4.16c3.69-.52,5.63,4.54,4.45,7.81s-4.74,1.14-5.78,0A6.26,6.26,0,0,1,175.54,125.2Z"/><path class="cls-5" d="M176.24,124.87s-.62-3.64,3.07-4.16,5.63,4.54,4.45,7.81-4.73,1.13-5.78,0A6.18,6.18,0,0,1,176.24,124.87Z"/><path class="cls-4" d="M117.58,193.61s-8.93,9.62-19.45.56-8.82-19.47-2.35-21,16.35,3.64,22.2,8.88S117.58,193.61,117.58,193.61Z"/><path class="cls-4" d="M84.41,173.65s-8.39,3.31-10.56-3-.28-9.9,4.11-10.7,7.68,5.87,8.57,8.55S86.06,173.16,84.41,173.65Z"/><path class="cls-4" d="M122.19,163.94s1.69,6.3-3,7.34-7.14-.61-7.36-3.84,4.86-5,6.86-5.45A2.77,2.77,0,0,1,122.19,163.94Z"/><path class="cls-4" d="M137.63,197.1s1.69,6.3-3,7.35-7.14-.62-7.36-3.84,4.86-5,6.85-5.46A2.77,2.77,0,0,1,137.63,197.1Z"/><path class="cls-4" d="M105,162.39s.78,4.15-3.43,4.81-6.52-5.09-5.22-8.84,5.38-1.38,6.59-.1A7,7,0,0,1,105,162.39Z"/><path class="cls-4" d="M145.82,180.16a3.09,3.09,0,0,1,4.55,1.29c1.87,3.13-1.45,6.65-4.54,6.74s-2.77-3.85-2.26-5.18A5.19,5.19,0,0,1,145.82,180.16Z"/><path class="cls-4" d="M71.94,125.09a1.71,1.71,0,0,1,2.51.71c1,1.72-.8,3.65-2.5,3.7s-1.52-2.11-1.24-2.84A2.8,2.8,0,0,1,71.94,125.09Z"/><path class="cls-4" d="M61,140.56a3,3,0,0,1,4.4,1.11c1.75,2.88-1.54,6.24-4.55,6.38s-2.61-3.53-2.09-4.79A5.27,5.27,0,0,1,61,140.56Z"/><path class="cls-4" d="M82.73,184.92a2.69,2.69,0,0,1-2.3,3.22c-2.81.44-4.35-3.4-3.49-5.91s3.6-.93,4.41-.07A4.76,4.76,0,0,1,82.73,184.92Z"/><path class="cls-4" d="M60.79,125.74s.68,3.64-3,4.21-5.71-4.45-4.57-7.74,4.71-1.21,5.77-.09A6.2,6.2,0,0,1,60.79,125.74Z"/><path class="cls-4" d="M140.09,164.37s.67,3.64-3,4.22-5.7-4.46-4.57-7.74,4.71-1.21,5.77-.09A6.14,6.14,0,0,1,140.09,164.37Z"/><path class="cls-4" d="M185.71,72.34s-5.77-5.17-10.24-1.43-7.35,9.45,0,13,15.86,6.72,16.3,2.26S192.63,78.39,185.71,72.34Z"/><path class="cls-5" d="M185.12,70.72s-5.77-5.17-10.24-1.43-7.36,9.45,0,13,15.86,6.72,16.29,2.25S192,76.77,185.12,70.72Z"/><path class="cls-4" d="M190,180.05q-1.78,2.05-3.7,4c-.64.68-1.3,1.33-2,2h0c-6.17-.12-12.37-1.19-15.88-4.39-4-3.66-3.58-9.61-2.27-15.72h0c.85-3.95,2.06-8,2.68-11.49a.78.78,0,0,0,0-.21c.55-3.08.61-5.78-.45-7.7-4.17-7.58-13.88,3.55-31.73,0-9.33-1.87-9.52-8.88-7.89-16.51a.31.31,0,0,0,0-.1c1-4.62,2.63-9.46,3.29-13.51a.06.06,0,0,0,0-.05,14.24,14.24,0,0,0,.05-5.4c-2.3-9.52-8-13.31-27.53-6.37s-29.22,0-30.31-21.32c-.47-9.25-7.42-14-15.14-16.45.48-.56,1-1.11,1.49-1.66,1-1.06,1.94-2.08,2.94-3.08,8.2,2,15.64,6.24,17.56,14.84C86,98.26,97.77,100.7,111.18,98s27.37,4.34,24.72,20.92.49,25.52,18.38,21.06,20.26,4.65,17.63,21.28C169.88,174.07,176.82,179.74,190,180.05Z"/><path class="cls-5" d="M191.7,178.06c-.55.68-1.11,1.34-1.68,2q-1.78,2.05-3.7,4c-6.7,0-13.67-.93-17.49-4.43-3.58-3.23-3.64-8.3-2.67-13.69h0c.68-3.84,1.89-7.86,2.68-11.49a.78.78,0,0,0,0-.21c.86-3.93,1.23-7.39,0-9.72-4.17-7.58-13.88,3.54-31.73,0-8.5-1.7-9.42-7.67-8.29-14.49a.31.31,0,0,0,0-.1c.77-4.46,2.37-9.29,3.29-13.51a.06.06,0,0,0,0-.05,17.68,17.68,0,0,0,.45-7.43c-2.3-9.51-8-13.3-27.53-6.36s-29.22,0-30.31-21.32c-.44-8.83-6.77-13.57-14-16.09,1-1.06,1.94-2.08,2.94-3.08.57-.56,1.14-1.13,1.73-1.66,7.66,2.11,14.41,6.36,16.23,14.5,4.76,21.33,16.57,23.79,30,21s27.38,4.34,24.73,20.91.48,25.54,18.37,21.06,20.25,4.66,17.64,21.28C170.23,172.46,177.67,178.08,191.7,178.06Z"/><path class="cls-4" d="M175.71,193.24c-.55.41-1.1.81-1.66,1.19l-1.17.82c-5.7-.75-12-2.83-15.45-8.1l-.06-.07a16.88,16.88,0,0,1-1.09-2s-1.85-3-1.62-12c.17-7.59.81-12.32-1.73-15.29a7.15,7.15,0,0,0-1.73-1.47c-4.55-2.82-12.22-1.58-19.52-1.41-4.22.09-8.5-.65-10.82-4.49a14.75,14.75,0,0,1-1.71-7.18c-.19-8.78,2.27-24.31-1.88-28.73a4,4,0,0,0-.54-.48c-4.9-3.62-13.34-.76-19.93,1.09s-15.52,4.33-23.45-2.28a28.28,28.28,0,0,1-4.86-5.58C63.25,99.75,58.54,88.89,55,84.32a.15.15,0,0,0-.07-.07,9.28,9.28,0,0,0-1.29-1.42,10.14,10.14,0,0,0-4.36-1.9,6.89,6.89,0,0,1,.4-.71c.76-1.33,1.55-2.63,2.4-3.91a21.05,21.05,0,0,1,7,6.07.18.18,0,0,1,0,.07,33.34,33.34,0,0,1,4.76,9,64,64,0,0,0,6.87,14.35c6.82,9.89,15.18,10.46,29,6.69,10.61-2.87,16.11-3,19,.54h0c2.27,2.74,3,7.64,3.25,15.09.37,9.29-.5,16.16,1.91,20.26,2,3.46,6.33,5,15.62,4.24,8-.6,12.3.73,14.55,3.38,0,0,0,0,0,0,3.44,4.12,2.09,11.34,2.09,19.47a15.13,15.13,0,0,0,2.51,8.44.31.31,0,0,0,.07.09C162.37,189.31,169,192.49,175.71,193.24Z"/><path class="cls-5" d="M176.86,192.37c-.38.31-.76.59-1.15.87-.55.41-1.1.81-1.66,1.19-5.76-.48-12.61-2.21-16.62-7.28l-.06-.07a15,15,0,0,1-1.81-3.05s-1.84-3-1.63-12c.17-6.78.71-11.26-1-14.27a6.89,6.89,0,0,0-2.46-2.49c-4.53-2.81-12.22-1.56-19.52-1.41-3.82.09-7.68-.51-10.09-3.47-1.43-1.77-2.35-4.38-2.43-8.2-.18-8.19,2-22.31-1.16-27.71A4.52,4.52,0,0,0,116,113c-4.89-3.62-13.32-.76-19.93,1.07s-15.52,4.32-23.43-2.27a26.5,26.5,0,0,1-4.15-4.57c-5.17-7-9.88-17.66-13.5-22.92a.15.15,0,0,0-.07-.07,11.21,11.21,0,0,0-2-2.42,8.53,8.53,0,0,0-3.23-1.61c.76-1.33,1.55-2.63,2.4-3.91.09-.16.19-.31.28-.45a22.1,22.1,0,0,1,6.76,6.52.18.18,0,0,1,0,.07,34.92,34.92,0,0,1,4,8c2.44,6.71,4.89,11.73,7.59,15.35,6.7,8.91,14.93,9.3,28.33,5.67,11.52-3.11,17-3,19.72,1.56h0c1.7,2.88,2.27,7.46,2.53,14.07.38,10.11-.66,17.36,2.63,21.28,2.25,2.74,6.57,3.86,14.91,3.22,9-.69,13.26,1.08,15.26,4.4,0,0,0,0,0,0,2.51,4.23,1.37,11,1.37,18.47a15.07,15.07,0,0,0,3.23,9.44.31.31,0,0,0,.07.09C162.86,189.17,170,192.06,176.86,192.37Z"/><path class="cls-6" d="M211.08,123A86.51,86.51,0,0,1,61,181.68,89.81,89.81,0,0,0,189.53,65.87,86.08,86.08,0,0,1,211.08,123Z"/><path class="cls-7" d="M127.53,56.33c9,9.6,5.25,27.68-8.33,40.39S87.31,112,78.33,102.35,73.08,74.66,86.67,62,118.55,46.72,127.53,56.33Z"/><circle class="cls-8" cx="124.12" cy="123.6" r="87.66"/></g></g></g></svg>