<svg xmlns="http://www.w3.org/2000/svg" xmlns:xlink="http://www.w3.org/1999/xlink" viewBox="0 0 241.88 236.75"><defs><style>.cls-1{isolation:isolate;}.cls-2{opacity:0.75;fill:url(#Degradado_sin_nombre_20);}.cls-3{fill:none;stroke:#fff3e6;stroke-miterlimit:10;stroke-width:2.25px;}.cls-4{fill:url(#linear-gradient);}.cls-5{fill:url(#linear-gradient-2);}.cls-6{fill:url(#linear-gradient-3);}.cls-7{fill:url(#linear-gradient-4);}.cls-8{fill:url(#linear-gradient-5);}.cls-9{fill:url(#linear-gradient-6);}.cls-10{fill:url(#linear-gradient-7);}.cls-11{fill:url(#linear-gradient-8);}.cls-12{fill:url(#linear-gradient-9);}.cls-13{fill:url(#linear-gradient-10);}.cls-14{fill:url(#linear-gradient-11);}.cls-15{fill:url(#linear-gradient-12);}.cls-16{opacity:0.68;}.cls-17{fill:#e6e7e8;}.cls-17,.cls-20,.cls-22{mix-blend-mode:multiply;}.cls-18,.cls-21{fill:#fff;}.cls-19{fill:#fff3e6;}.cls-20{fill:#ffb164;opacity:0.4;}.cls-21{mix-blend-mode:color-dodge;opacity:0.3;}.cls-22{fill:url(#Degradado_sin_nombre_15);}</style><radialGradient id="Degradado_sin_nombre_20" cx="11218.23" cy="16657.5" r="259.2" gradientTransform="matrix(-0.39, -0.23, 0.23, -0.39, 660.17, 9283.38)" gradientUnits="userSpaceOnUse"><stop offset="0" stop-color="#fbed21"/><stop offset="1" stop-color="#fbed21" stop-opacity="0"/></radialGradient><linearGradient id="linear-gradient" x1="165.12" y1="176.03" x2="83.21" y2="57.15" gradientUnits="userSpaceOnUse"><stop offset="0" stop-color="#ed8411"/><stop offset="1" stop-color="#ffca36"/></linearGradient><linearGradient id="linear-gradient-2" x1="147.52" y1="141.05" x2="124" y2="92.01" xlink:href="#linear-gradient"/><linearGradient id="linear-gradient-3" x1="145.73" y1="141.91" x2="122.21" y2="92.87" xlink:href="#linear-gradient"/><linearGradient id="linear-gradient-4" x1="143.84" y1="142.81" x2="120.32" y2="93.78" xlink:href="#linear-gradient"/><linearGradient id="linear-gradient-5" x1="141.86" y1="143.76" x2="118.34" y2="94.73" xlink:href="#linear-gradient"/><linearGradient id="linear-gradient-6" x1="139.76" y1="144.77" x2="116.24" y2="95.74" xlink:href="#linear-gradient"/><linearGradient id="linear-gradient-7" x1="138.04" y1="145.59" x2="114.52" y2="96.56" xlink:href="#linear-gradient"/><linearGradient id="linear-gradient-8" x1="136.34" y1="146.41" x2="112.82" y2="97.37" xlink:href="#linear-gradient"/><linearGradient id="linear-gradient-9" x1="134.09" y1="147.49" x2="110.57" y2="98.45" xlink:href="#linear-gradient"/><linearGradient id="linear-gradient-10" x1="131.65" y1="148.66" x2="108.13" y2="99.62" xlink:href="#linear-gradient"/><linearGradient id="linear-gradient-11" x1="128.97" y1="149.95" x2="105.45" y2="100.91" xlink:href="#linear-gradient"/><linearGradient id="linear-gradient-12" x1="126.55" y1="151.12" x2="103.03" y2="102.1" xlink:href="#linear-gradient"/><linearGradient id="Degradado_sin_nombre_15" x1="449.58" y1="325.26" x2="562.92" y2="438.6" gradientTransform="matrix(-0.64, 0.77, -0.77, -0.64, 740.7, -29.57)" gradientUnits="userSpaceOnUse"><stop offset="0" stop-color="#fff"/><stop offset="0.04" stop-color="#efefef"/><stop offset="0.18" stop-color="#b8b8b7"/><stop offset="0.33" stop-color="#898988"/><stop offset="0.47" stop-color="#626260"/><stop offset="0.61" stop-color="#444442"/><stop offset="0.75" stop-color="#2e2e2c"/><stop offset="0.88" stop-color="#21211f"/><stop offset="1" stop-color="#1d1d1b"/></linearGradient></defs><g class="cls-1"><g id="Capa_2" data-name="Capa 2"><g id="Capa_2-2" data-name="Capa 2"><ellipse class="cls-2" cx="121.77" cy="118.37" rx="118.21" ry="118.48" transform="translate(-48.04 120.77) rotate(-45)"/><path class="cls-3" d="M1.24,129C-1.7,107.49,49.49,82.7,115.6,73.64s122.09,1,125,22.55"/><path class="cls-4" d="M203.36,115.37a80,80,0,1,1-80-80A80,80,0,0,1,203.36,115.37Z"/><path class="cls-5" d="M143,38a286.33,286.33,0,0,1-78.23,23A75.27,75.27,0,0,0,59.85,67c35.75-4.72,67.2-15.42,91.66-26.24A75.93,75.93,0,0,0,143,38Z"/><path class="cls-6" d="M161.06,45.08A286.38,286.38,0,0,1,53.44,76.77h0c-1,1.78-1.9,3.62-2.75,5.48C98.25,78.16,139.17,62.88,167.62,49,165.5,47.62,163.31,46.29,161.06,45.08Z"/><path class="cls-7" d="M174.24,54A286.33,286.33,0,0,1,47.17,91.36c-.54,1.75-1.05,3.54-1.48,5.36,56.13-3,103.8-22.18,134-37.76C178,57.22,176.13,55.56,174.24,54Z"/><path class="cls-8" d="M184.51,64.25A286.16,286.16,0,0,1,44.11,105.5c-.2,1.77-.36,3.54-.46,5.35,62.14-2,114.53-24.19,145.3-40.73C187.57,68.09,186.08,66.13,184.51,64.25Z"/><path class="cls-9" d="M192.49,75.75A286.14,286.14,0,0,1,43.63,119.44c.1,1.8.24,3.57.45,5.34C109.81,123.57,165,99.43,195.94,82.46,194.89,80.16,193.75,77.92,192.49,75.75Z"/><path class="cls-10" d="M198.38,88.54A286.31,286.31,0,0,1,45.56,133.31c.43,1.82.91,3.61,1.46,5.36,66.64-.94,122.61-25.53,153.62-42.62A73.86,73.86,0,0,0,198.38,88.54Z"/><path class="cls-11" d="M202,102.76a286.44,286.44,0,0,1-151.84,44.4q1.19,2.72,2.56,5.32c64.59-1.26,119-24.62,150.14-41.52A76.41,76.41,0,0,0,202,102.76Z"/><path class="cls-12" d="M57.91,161c1.26,1.8,2.6,3.54,4,5.23C121,164,171.13,143.63,202.05,127.48a73.37,73.37,0,0,0,.86-8.82A286.52,286.52,0,0,1,57.91,161Z"/><path class="cls-13" d="M76,179.51c49.2-3.54,91.55-19.23,120.8-33.44a74.89,74.89,0,0,0,3.23-9.36A286.05,286.05,0,0,1,70,174.58C71.89,176.32,73.92,178,76,179.51Z"/><path class="cls-14" d="M99.3,191.34A334.32,334.32,0,0,0,183,168.06,78.85,78.85,0,0,0,190.6,158,286.05,286.05,0,0,1,89.11,187.34,79.21,79.21,0,0,0,99.3,191.34Z"/><path class="cls-15" d="M159.29,186.42a283.7,283.7,0,0,1-27.71,8.16A79.12,79.12,0,0,0,159.29,186.42Z"/><g class="cls-16"><path class="cls-17" d="M56.54,120.74s3.32-8.66,7.18-4.33,4.48,8-1,9.86S54.1,126.08,56.54,120.74Z"/><path class="cls-18" d="M56.27,119.46s3.33-8.65,7.18-4.32,4.49,8-1,9.86S53.83,124.81,56.27,119.46Z"/><path class="cls-18" d="M65.86,131.78s2.33-6,5-3,3.14,5.6-.68,6.89S64.15,135.52,65.86,131.78Z"/><path class="cls-18" d="M177.61,83.91s1.76-4.59,3.8-2.29,2.38,4.24-.51,5.23S176.31,86.75,177.61,83.91Z"/><path class="cls-18" d="M71.74,123.64a3.87,3.87,0,0,1-1.23-3.16c.29-.79,2.78-1.32,3.41.34S72.55,124.07,71.74,123.64Z"/><path class="cls-18" d="M65.55,77.4a3.87,3.87,0,0,1-1.23-3.16c.29-.8,2.78-1.33,3.41.34S66.35,77.83,65.55,77.4Z"/><path class="cls-18" d="M190.15,113.2a3.91,3.91,0,0,1-1.24-3.17c.3-.79,2.78-1.32,3.41.35S191,113.63,190.15,113.2Z"/><path class="cls-18" d="M133,143.46a3.93,3.93,0,0,1-1.24-3.17c.3-.79,2.78-1.32,3.41.35S133.77,143.88,133,143.46Z"/><path class="cls-18" d="M58.92,134.78a3.9,3.9,0,0,1-1.23-3.17c.29-.79,2.78-1.32,3.41.35S59.73,135.2,58.92,134.78Z"/><path class="cls-18" d="M180.14,73.08a3.9,3.9,0,0,1-1.23-3.17c.29-.79,2.78-1.32,3.41.35S181,73.51,180.14,73.08Z"/><path class="cls-18" d="M109.63,48.44a3.87,3.87,0,0,1-1.23-3.16c.3-.79,2.78-1.32,3.41.34S110.44,48.87,109.63,48.44Z"/><path class="cls-18" d="M84.15,122.77S82,116.14,87.45,118s2.13,5-.35,6.22A1.92,1.92,0,0,1,84.15,122.77Z"/><path class="cls-18" d="M143.41,169.47s-2.17-6.63,3.3-4.81,2.13,5-.35,6.22A1.92,1.92,0,0,1,143.41,169.47Z"/><path class="cls-17" d="M99,93.61s-5.4-16.47,8.19-12,5.3,12.53-.87,15.46S99,93.61,99,93.61Z"/><path class="cls-18" d="M99,92s-5.4-16.47,8.19-12,5.3,12.52-.87,15.45S99,92,99,92Z"/><path class="cls-18" d="M118.72,48.56s6-3.58,5.42,2.15-4.44,3.2-6.14,1A1.91,1.91,0,0,1,118.72,48.56Z"/><path class="cls-18" d="M79.52,128.89s-1-.34-1.33,1.07,1.14,1.34,1.66.38A1,1,0,0,0,79.52,128.89Z"/><path class="cls-18" d="M140.45,43.58s-.95-.33-1.32,1.08,1.14,1.33,1.66.37A1,1,0,0,0,140.45,43.58Z"/><path class="cls-18" d="M178.51,114.42s-1-.33-1.32,1.08,1.14,1.34,1.66.38A1,1,0,0,0,178.51,114.42Z"/><path class="cls-18" d="M82.91,73.9s-1-.33-1.33,1.08,1.14,1.34,1.66.38A1,1,0,0,0,82.91,73.9Z"/><path class="cls-18" d="M154.91,86.06s-1-.34-1.32,1.07,1.14,1.34,1.66.38A1,1,0,0,0,154.91,86.06Z"/><path class="cls-18" d="M90,156.41s-1-.33-1.33,1.08,1.15,1.34,1.67.38A1.05,1.05,0,0,0,90,156.41Z"/><path class="cls-18" d="M129.77,126.63s-1-.33-1.33,1.08,1.15,1.33,1.67.37A1,1,0,0,0,129.77,126.63Z"/><path class="cls-18" d="M173,171.22s-1-.33-1.32,1.08,1.14,1.34,1.66.38A1,1,0,0,0,173,171.22Z"/><path class="cls-18" d="M105.62,58.94s-1-.33-1.32,1.08,1.14,1.34,1.66.38A1,1,0,0,0,105.62,58.94Z"/><path class="cls-18" d="M67.62,146.86s-1,4.88,1.61,3,1.82-2.2.42-3.75C68.67,145.2,68,146.14,67.62,146.86Z"/><path class="cls-17" d="M88.31,169.37s4.3-11.21,9.3-5.6,5.8,10.36-1.26,12.77S85.14,176.29,88.31,169.37Z"/><path class="cls-18" d="M88.31,167.57s4.3-11.21,9.3-5.6,5.8,10.36-1.26,12.76S85.14,174.49,88.31,167.57Z"/><path class="cls-18" d="M99.1,180s2.32-6.05,5-3,3.14,5.59-.67,6.89S97.39,183.76,99.1,180Z"/><path class="cls-18" d="M105,171.88a3.87,3.87,0,0,1-1.23-3.16c.3-.79,2.78-1.33,3.41.34S105.78,172.31,105,171.88Z"/><path class="cls-18" d="M92.16,183a3.93,3.93,0,0,1-1.24-3.17c.3-.79,2.78-1.32,3.41.35S93,183.44,92.16,183Z"/><path class="cls-18" d="M138.81,107.33s1.28,4.81,2.78,2,.67-2.78-1.26-3.56C139,105.38,138.82,106.53,138.81,107.33Z"/><path class="cls-18" d="M146.32,184.12s1.28,4.81,2.79,2,.66-2.78-1.27-3.56C146.54,182.17,146.33,183.31,146.32,184.12Z"/><path class="cls-18" d="M138.78,175s1.27,4.82,2.78,2,.67-2.78-1.26-3.55C139,173,138.78,174.15,138.78,175Z"/><path class="cls-18" d="M159.47,173s4.78-1.41,2-2.84-2.8-.59-3.52,1.36C157.52,172.85,158.67,173,159.47,173Z"/><path class="cls-18" d="M81.65,155.14s-4.51,2.12-1.5,3.1,2.86.16,3.27-1.89C83.6,155,82.44,155,81.65,155.14Z"/><path class="cls-18" d="M124.63,72.59s2.33-6,5-3,3.14,5.59-.67,6.89S122.93,76.33,124.63,72.59Z"/><path class="cls-18" d="M117.69,75.58a3.87,3.87,0,0,1-1.23-3.16c.29-.79,2.78-1.32,3.41.34S118.5,76,117.69,75.58Z"/><path class="cls-18" d="M126.4,87.66s-1,4.89,1.6,3,1.82-2.2.43-3.75C127.44,86,126.75,86.94,126.4,87.66Z"/><path class="cls-18" d="M140.42,96s-4.5,2.11-1.5,3.1,2.86.15,3.27-1.89C142.38,95.8,141.21,95.8,140.42,96Z"/><path class="cls-18" d="M167.63,56.18s-1-.34-1.33,1.07,1.15,1.34,1.67.38A1,1,0,0,0,167.63,56.18Z"/><path class="cls-18" d="M151.53,77.45s1.27,4.81,2.78,2S155,76.7,153,75.92C151.74,75.5,151.53,76.64,151.53,77.45Z"/><path class="cls-18" d="M139.11,57.78s-1,4.88,1.6,3,1.83-2.2.43-3.75C140.16,56.12,139.46,57.06,139.11,57.78Z"/><path class="cls-18" d="M153.13,66.06s-4.5,2.12-1.49,3.1,2.85.16,3.27-1.88C155.09,65.92,153.92,65.92,153.13,66.06Z"/><path class="cls-18" d="M153.28,115.05s4,2.91,3.44-.2-1.25-2.57-3.24-1.94C152.2,113.41,152.77,114.43,153.28,115.05Z"/><path class="cls-18" d="M99.51,137.35s-8.61-.64-5.46-4.83,6-3.54,7.24-1.72S102.81,138,99.51,137.35Z"/><path class="cls-18" d="M144.89,137.62s1.45-8.52,5.32-5,3,6.26,1,7.37S144,140.84,144.89,137.62Z"/><path class="cls-18" d="M106.28,125a3.93,3.93,0,0,1-1.24-3.17c.3-.79,2.78-1.32,3.41.35S107.08,125.4,106.28,125Z"/><path class="cls-18" d="M103.08,108.15s-1-.33-1.33,1.08,1.14,1.33,1.66.37A1,1,0,0,0,103.08,108.15Z"/><path class="cls-17" d="M119.15,120.09s1.45-8.51,5.32-5,3,6.25,1,7.37S118.21,123.32,119.15,120.09Z"/><path class="cls-18" d="M118.2,119.14s1.44-8.52,5.32-5,3,6.26,1,7.37S117.26,122.37,118.2,119.14Z"/><path class="cls-18" d="M87.7,89s1.28,4.82,2.78,2,.67-2.78-1.26-3.55C87.91,87.06,87.7,88.21,87.7,89Z"/><path class="cls-18" d="M75.28,69.35s-1,4.88,1.61,3.05,1.82-2.21.42-3.75C76.33,67.69,75.64,68.63,75.28,69.35Z"/><path class="cls-18" d="M89.31,77.63s-4.51,2.12-1.5,3.1,2.86.16,3.27-1.88C91.26,77.49,90.1,77.49,89.31,77.63Z"/><path class="cls-18" d="M67.09,100.83s1.44-8.52,5.32-5,3,6.26,1,7.37S66.15,104.05,67.09,100.83Z"/><path class="cls-18" d="M118.79,171.24s1.45-8.52,5.33-5,3,6.26,1,7.37S117.86,174.46,118.79,171.24Z"/><path class="cls-18" d="M170.24,154.22s-7.77-3.78-3.29-6.52,6.84-1.09,7.36,1.09S173.08,156,170.24,154.22Z"/><path class="cls-18" d="M187.31,142s-9-6.31-2.85-8.85,8.82,0,9,2.83S190.51,144.81,187.31,142Z"/></g><path class="cls-19" d="M52.09,153.6a7.28,7.28,0,1,1-7.28-7.28A7.28,7.28,0,0,1,52.09,153.6Z"/><path class="cls-20" d="M203,115.28a79.73,79.73,0,0,1-138.3,54.1A82.78,82.78,0,0,0,183.13,62.64,79.39,79.39,0,0,1,203,115.28Z"/><path class="cls-21" d="M121.19,51c8.28,8.85,4.84,25.52-7.69,37.23s-29.38,14-37.66,5.19S71,67.89,83.52,56.17,112.91,42.13,121.19,51Z"/><path class="cls-3" d="M240.63,96.19c3,21.52-48.25,46.31-114.35,55.37s-122.09-1-125-22.56"/><circle class="cls-22" cx="123.27" cy="115.18" r="80.15"/></g></g></g></svg>