<svg xmlns="http://www.w3.org/2000/svg" xmlns:xlink="http://www.w3.org/1999/xlink" viewBox="0 0 2035.92 2035.93"><defs><style>.cls-1{isolation:isolate;}.cls-2{opacity:0.75;fill:url(#Degradado_sin_nombre_26);}.cls-3{fill:url(#linear-gradient);}.cls-4,.cls-7{fill:#bfc636;}.cls-4,.cls-5,.cls-7,.cls-8{mix-blend-mode:multiply;}.cls-4{opacity:0.5;}.cls-5{fill:#e6e7e8;opacity:0.96;}.cls-6{fill:#fff;opacity:0.31;}.cls-7{opacity:0.4;}.cls-8{fill:url(#Degradado_sin_nombre_15);}</style><radialGradient id="Degradado_sin_nombre_26" cx="-8827.76" cy="13570.16" r="2228.99" gradientTransform="matrix(-0.39, -0.23, 0.23, -0.39, -5597.58, 4304.64)" gradientUnits="userSpaceOnUse"><stop offset="0" stop-color="#8bc53f"/><stop offset="1" stop-color="#fbed21" stop-opacity="0"/></radialGradient><linearGradient id="linear-gradient" x1="1522.43" y1="1563.19" x2="760.84" y2="789.12" gradientUnits="userSpaceOnUse"><stop offset="0" stop-color="#bfc636"/><stop offset="1" stop-color="#ebf964"/></linearGradient><linearGradient id="Degradado_sin_nombre_15" x1="-10003.8" y1="-4583.21" x2="-9020.69" y2="-3600.09" gradientTransform="matrix(-0.64, 0.77, -0.77, -0.64, -8212.67, 5750.37)" gradientUnits="userSpaceOnUse"><stop offset="0" stop-color="#fff"/><stop offset="0.04" stop-color="#efefef"/><stop offset="0.18" stop-color="#b8b8b7"/><stop offset="0.33" stop-color="#898988"/><stop offset="0.47" stop-color="#626260"/><stop offset="0.61" stop-color="#444442"/><stop offset="0.75" stop-color="#2e2e2c"/><stop offset="0.88" stop-color="#21211f"/><stop offset="1" stop-color="#1d1d1b"/></linearGradient></defs><g class="cls-1"><g id="Capa_2" data-name="Capa 2"><g id="Capa_2-2" data-name="Capa 2"><ellipse class="cls-2" cx="1017.96" cy="1017.96" rx="1016.51" ry="1018.87" transform="translate(-421.65 1017.96) rotate(-45)"/><path class="cls-3" d="M1714.52,1057.86c0,380.68-308.6,689.28-689.28,689.28S336,1438.54,336,1057.86s308.59-689.27,689.26-689.27S1714.52,677.19,1714.52,1057.86Z"/><path class="cls-4" d="M1193.63,1631.77c24,14.27,93.34,25.88,115.1,51.9-252.79,114.49-560.82,67.68-768.64-140.12-160.23-160.22-224.61-379.78-193.44-587.69,38.35-7.67,78.66-6.21,116.73,12.82,136,68,128.66-46.12,213.64,9.71s35.53,199.4,79.23,320.78,139.43,182.32,307.48,183.13C1218.6,1483,1077.46,1562.81,1193.63,1631.77Z"/><path class="cls-4" d="M1511.2,572.49c185.19,185.18,242.49,449.89,171.89,684.21-23.31,10.68-46.43,19-68.18,23.5-120.6,25-49.33-141.58-176.35-234.61s-135.17-33.21-300.84-28.94,10.29-77.1-60.11-147.5,14.55-116.53,123.81-240.34c62.73-71.08,23-169.25-22.24-240.15C1300.86,416.34,1416.42,477.71,1511.2,572.49Z"/><path class="cls-5" d="M383.94,1141.29s-38-93.06,46.14-76.87,109.24-54.22,121.38,35.6,16.19,126.24-49.36,140S383.94,1141.29,383.94,1141.29Z"/><path class="cls-5" d="M490.91,1227.45c-42.26,0-82.56-66.39-94.52-92-5.41-13.4-11.47-40.09-3.47-51.93,1.21-1.8,4.91-7.28,19.21-7.28a81.8,81.8,0,0,1,15.35,1.65,152.08,152.08,0,0,0,28.48,2.76c22.86,0,40.8-5.51,53.91-9.53,6.84-2.09,13.3-4.08,17-4.08,3.92,0,8,13,11,34.79,13,96.27,11.33,114.24-38.57,124.71A40.75,40.75,0,0,1,490.91,1227.45Z"/><path class="cls-5" d="M597.07,1116.61s-50.54-40.5,2.27-54.47,64.33-30.34,77.08,15.18S646.47,1154.51,597.07,1116.61Z"/><path class="cls-5" d="M639.77,1119.72c-10.53,0-22.4-4.84-34.35-14-9-7.32-17.28-18.85-16.36-23.06.2-1.06,3.13-4.42,13.79-7.23,11-2.92,20.25-5.92,28.12-8.48,9.55-3.11,17.8-5.8,22.27-5.8,1.08,0,4.39,0,10,19.87,3.23,11.55,1.95,22.35-3.55,29.59C655.12,1116.57,648.24,1119.72,639.77,1119.72Z"/><path class="cls-5" d="M484.92,779.5S434.38,739,487.19,725s64.34-30.34,77.08,15.18S534.33,817.4,484.92,779.5Z"/><path class="cls-5" d="M527.63,782.61c-10.52,0-22.4-4.84-34.36-14-9-7.32-17.26-18.84-16.37-23.05.23-1.06,3.14-4.42,13.8-7.24,11-2.91,20.25-5.91,28.13-8.48,9.55-3.11,17.8-5.79,22.26-5.79,1.09,0,4.39,0,9.95,19.86,3.24,11.58,2,22.36-3.54,29.6C543,779.46,536.1,782.61,527.63,782.61Z"/><path class="cls-5" d="M589,1213.27s-24.27-52.19,10.32-48,54.62,8.5,49.76,38.85S598.12,1269.71,589,1213.27Z"/><path class="cls-5" d="M611.65,1229.48c-3.65,0-7.32-7.39-9.08-18.41l-.3-1.86-.8-1.72c-4.85-10.51-8-24-6.83-28.68.05,0,2.27,0,3,.13,12.86,1.58,32.27,4,36.78,10,2.18,2.9,1.81,8.71,1.11,13.08C633.41,1215.26,619.7,1229.48,611.65,1229.48Z"/><path class="cls-5" d="M1185.23,761.52s-77.28,16.59-62.11,62.11-27.31,78.29,33.38,71S1274.66,730.37,1185.23,761.52Z"/><path class="cls-5" d="M1142,881.93a36,36,0,0,1-5.69-.39,104.71,104.71,0,0,1,1.44-10.45c2.25-13.13,5.3-31.11-1.61-51.8-2-6-1.62-11.15,1.2-16.1,9.22-16.13,40.53-26,50.77-28.24l.84-.18.8-.28c6.33-2.2,11.76-3.32,16.17-3.32,4.59,0,10.89,0,11.71,13.7,2,33.44-32.75,92.54-62.76,96.14a109.87,109.87,0,0,1-12.87.92Z"/><path class="cls-5" d="M1244.32,903.15s-31.37,18.19-22.87,32.76,1.21,48.55,32.47,32.47,32.33-42.32,15.86-55.15S1244.32,903.15,1244.32,903.15Z"/><path class="cls-5" d="M1241.89,958.56a86.08,86.08,0,0,1-2.26-9.52c-1.18-6.08-2.51-12.93-5.66-18.86,1.49-3.17,7.75-9,14.29-13.3,2.19.51,6.59,2.12,13.09,7.18a12.55,12.55,0,0,1,5.19,11.22c-.7,7.46-7.6,15.07-18.9,20.88A30.2,30.2,0,0,1,1241.89,958.56Z"/><path class="cls-5" d="M984.65,472.46S941,506.6,956.93,526.85s12.05,73.22,56,42.3,40-70.86,12.4-86.8S984.65,472.46,984.65,472.46Z"/><path class="cls-5" d="M990.38,564.89c-3.24,0-7.64-12.78-10-19.65-3.25-9.44-6.62-19.22-12.64-26.89-1.51-1.93.21-8.19,7.55-17.4a125,125,0,0,1,15.64-15.87l1.13,0c3.9,0,12.55,1.19,26.39,9.18,8.49,4.91,13.41,12.67,13.82,21.82.64,14-9.3,29.23-27.26,41.87-9.17,6.45-13.51,7-14.62,7Z"/><path class="cls-5" d="M930.8,642.08s-31.37,18.19-22.89,32.76,1.22,48.55,32.48,32.47,32.34-42.32,15.87-55.15S930.8,642.08,930.8,642.08Z"/><path class="cls-5" d="M928.37,697.49a79.53,79.53,0,0,1-2.25-9.53c-1.2-6.07-2.54-12.91-5.69-18.85,1.52-3.17,7.84-9,14.29-13.32,2.17.52,6.57,2.13,13.1,7.2a12.54,12.54,0,0,1,5.18,11.2c-.69,7.47-7.58,15.09-18.9,20.89A31.41,31.41,0,0,1,928.37,697.49Z"/><path class="cls-5" d="M1634.38,1037.48s-31.37,18.19-22.87,32.76,1.21,48.55,32.47,32.47,32.33-42.32,15.86-55.15S1634.38,1037.48,1634.38,1037.48Z"/><path class="cls-5" d="M1632,1092.9a80.71,80.71,0,0,1-2.26-9.54c-1.19-6.07-2.52-12.93-5.65-18.85,1.48-3.17,7.81-9,14.26-13.31,2.17.51,6.57,2.12,13.1,7.19a12.51,12.51,0,0,1,5.18,11.21c-.7,7.46-7.59,15.07-18.9,20.91A31.81,31.81,0,0,1,1632,1092.9Z"/><path class="cls-5" d="M1250.3,1342.24s-40.87,23.7-29.8,42.68,1.57,63.24,42.3,42.29,42.11-55.12,20.66-71.83S1250.3,1342.24,1250.3,1342.24Z"/><path class="cls-5" d="M1244.5,1419c-1.54-1.61-3.32-10.69-4.38-16.13-1.67-8.53-3.4-17.35-7.77-24.82-.28-3.82,9.87-14.55,22.52-22.47,2,.44,9,2,20.14,10.68,6,4.71,9,11.2,8.34,18.27-1,11.15-10.81,22.27-26.83,30.51-7,3.59-10.4,4-11.55,4A3.81,3.81,0,0,1,1244.5,1419Z"/><path class="cls-5" d="M1251.8,847.9s-16.08,18.52-1.83,25.5,20.34,7,20.64-6.68,8.5-25.49.61-30.34S1251.8,847.9,1251.8,847.9Z"/><path class="cls-5" d="M1251.8,847.9s-16.08,18.52-1.83,25.5,20.34,7,20.64-6.68,8.5-25.49.61-30.34S1251.8,847.9,1251.8,847.9Z"/><path class="cls-5" d="M1478,654.26s-16.08,18.51-1.82,25.49,20.33,7,20.64-6.67,8.5-25.5.61-30.35S1478,654.26,1478,654.26Z"/><path class="cls-5" d="M1478,654.26s-16.08,18.51-1.82,25.49,20.33,7,20.64-6.67,8.5-25.5.61-30.35S1478,654.26,1478,654.26Z"/><path class="cls-5" d="M895.17,562.44s-16.08,18.5-1.83,25.49,20.34,7,20.64-6.68,8.5-25.49.61-30.35S895.17,562.44,895.17,562.44Z"/><path class="cls-5" d="M895.17,562.44s-16.08,18.5-1.83,25.49,20.34,7,20.64-6.68,8.5-25.49.61-30.35S895.17,562.44,895.17,562.44Z"/><path class="cls-5" d="M1142.2,593.1s24.47,1.68,21.44-13.91-6.69-20.43-17.77-12.44-25.46,8.57-24.58,17.8S1142.2,593.1,1142.2,593.1Z"/><path class="cls-5" d="M1142.2,593.1s24.47,1.68,21.44-13.91-6.69-20.43-17.77-12.44-25.46,8.57-24.58,17.8S1142.2,593.1,1142.2,593.1Z"/><path class="cls-5" d="M817.13,1567.81s-16.1,18.51-1.83,25.49,20.34,7,20.64-6.68,8.5-25.49.6-30.34S817.13,1567.81,817.13,1567.81Z"/><path class="cls-5" d="M817.13,1567.81s-16.1,18.51-1.83,25.49,20.34,7,20.64-6.68,8.5-25.49.6-30.34S817.13,1567.81,817.13,1567.81Z"/><path class="cls-5" d="M1186.07,1290.33s-16.08,18.52-1.82,25.5,20.33,7,20.63-6.68,8.5-25.49.61-30.34S1186.07,1290.33,1186.07,1290.33Z"/><path class="cls-5" d="M1186.07,1290.33s-16.08,18.52-1.82,25.5,20.33,7,20.63-6.68,8.5-25.49.61-30.34S1186.07,1290.33,1186.07,1290.33Z"/><path class="cls-5" d="M888.86,1155.63s-16.1,18.51-1.83,25.49,20.33,7,20.64-6.67,8.5-25.5.61-30.35S888.86,1155.63,888.86,1155.63Z"/><path class="cls-5" d="M888.86,1155.63s-16.1,18.51-1.83,25.49,20.33,7,20.64-6.67,8.5-25.5.61-30.35S888.86,1155.63,888.86,1155.63Z"/><path class="cls-5" d="M1359.25,1567.81s-16.08,18.51-1.82,25.49,20.34,7,20.65-6.68,8.49-25.49.59-30.34S1359.25,1567.81,1359.25,1567.81Z"/><path class="cls-5" d="M1359.25,1567.81s-16.08,18.51-1.82,25.49,20.34,7,20.65-6.68,8.49-25.49.59-30.34S1359.25,1567.81,1359.25,1567.81Z"/><path class="cls-5" d="M1301.17,1333.09s-16.09,18.51-1.82,25.49,20.32,7,20.63-6.68,8.5-25.48.61-30.34S1301.17,1333.09,1301.17,1333.09Z"/><path class="cls-5" d="M1301.17,1333.09s-16.09,18.51-1.82,25.49,20.32,7,20.63-6.68,8.5-25.48.61-30.34S1301.17,1333.09,1301.17,1333.09Z"/><path class="cls-5" d="M431.65,1273.9s-16.08,18.51-1.83,25.49,20.34,7,20.65-6.68,8.49-25.49.61-30.34S431.65,1273.9,431.65,1273.9Z"/><path class="cls-5" d="M431.65,1273.9s-16.08,18.51-1.83,25.49,20.34,7,20.65-6.68,8.49-25.49.61-30.34S431.65,1273.9,431.65,1273.9Z"/><path class="cls-5" d="M623.79,787.47S607.71,806,622,813s20.33,7,20.64-6.67,8.48-25.49.59-30.35S623.79,787.47,623.79,787.47Z"/><path class="cls-5" d="M623.79,787.47S607.71,806,622,813s20.33,7,20.64-6.67,8.48-25.49.59-30.35S623.79,787.47,623.79,787.47Z"/><path class="cls-5" d="M1604.64,1008.41s24.49,1.33,21.23-14.22-7-20.33-17.93-12.18-25.34,8.94-24.32,18.15S1604.64,1008.41,1604.64,1008.41Z"/><path class="cls-5" d="M1604.64,1008.41s24.49,1.33,21.23-14.22-7-20.33-17.93-12.18-25.34,8.94-24.32,18.15S1604.64,1008.41,1604.64,1008.41Z"/><path class="cls-5" d="M928.3,1557.39s-42.44,23.11-52.78-26.08c-9.14-44.32,7.25-57.07,38.21-44.32S990.81,1539.79,928.3,1557.39Z"/><path class="cls-5" d="M906.89,1549.08c-4.07,0-13.61,0-17.94-20.59-4.78-23.23-.52-29.92.38-31,.34-.42,1.16-1.43,4.59-1.43,2.6,0,7.25.63,14.58,3.65,20.51,8.45,37.54,24.81,37.11,32.28-.13,2.21-4.69,7.61-21,12.2l-1.49.43-1.36.74S914.52,1549.08,906.89,1549.08Z"/><path class="cls-5" d="M1328.63,1256.64s18.54,44.62-31.45,49.75c-45,4.43-56-13.2-40.09-42.64S1317.67,1192.62,1328.63,1256.64Z"/><path class="cls-5" d="M1284.34,1293.34c-13.41,0-18.79-3-19.86-4.83s-1.16-7.43,4.69-18.24c9.33-17.26,26.48-33.57,35.31-33.57,4.07,0,8.34,9,10.62,22.25l.26,1.52.58,1.43c1.45,3.62,4.37,14.75.13,21.77-3,4.93-9.82,8-20.29,9C1291.67,1293.12,1287.84,1293.34,1284.34,1293.34Z"/><path class="cls-5" d="M715.26,1601.69S640,1539.79,705,1541.61s49.76,23.06,49.76,49.76S738.08,1624,715.26,1601.69Z"/><path class="cls-5" d="M739.28,1601.62c-2.17-.39-7.24-2.74-14.44-9.75-15.05-12.48-29-28.26-32-35.72a41,41,0,0,1,9.35-.86l2.35,0c29,.8,35.54,5.7,36.83,7.17,1.73,2,1.12,8.13.49,14.65a138.94,138.94,0,0,0-.91,14.21C741,1597.62,739.85,1600.53,739.28,1601.62Z"/><path class="cls-5" d="M537.91,1431.21s-123.66-101.71-17-98.71,81.77,37.89,81.77,81.76S575.4,1467.85,537.91,1431.21Z"/><path class="cls-5" d="M578.35,1440c-2.77,0-13.17-1.35-30.85-18.62-32.6-26.93-59.42-60.53-56-69.91.4-1.13,5.81-5.33,25-5.33l4.11.07c36.65,1,59.16,6,66.91,14.78,5.11,5.81,4.45,15.46,2.94,30.75-.66,6.79-1.43,14.49-1.43,22.5C589,1418.57,588.47,1440,578.35,1440Z"/><path class="cls-5" d="M866.38,1688.48s-1.2-55.84,32.78-32.77,9.48,42.71-4.37,40.77S864.47,1707.27,866.38,1688.48Z"/><path class="cls-5" d="M880.2,1683.85c.46-8.92,2.64-18.07,5-20.17,0,.23,2.13.61,6.22,3.38,10.16,6.9,11.39,11.52,11.15,12.3-.48,1.55-3.76,3.53-5.84,3.53a38.43,38.43,0,0,0-5.1-.34A60.63,60.63,0,0,0,880.2,1683.85Z"/><path class="cls-4" d="M1428.24,1282.73c51.75,99.34,151.42,104.77,191,121a692.75,692.75,0,0,1-229,236.35c-47.69-24-100.52-70.4-149.55-156.34-137.32-240.82-170.35-112.06-354.66-248.2s6.32-404.45-197-367.16C571.27,889.93,453.48,864,375.1,838.26a681,681,0,0,1,165-265.77A705.23,705.23,0,0,1,623.8,501C695,587,728.2,683.48,810.17,747.18c125.07,97.3-27.6,223.48,156.62,379.14S1299.37,1035.6,1428.24,1282.73Z"/><path class="cls-6" d="M939.76,565.83c71.3,76.21,41.67,219.77-66.17,320.66s-253.07,120.89-324.37,44.68S507.55,711.4,615.39,610.52,868.46,489.62,939.76,565.83Z"/><path class="cls-7" d="M1712.33,1058c0,379.29-307.38,686.68-686.68,686.68-199.39,0-378.92-85-504.39-220.74,110.24,70,241.21,110.61,381.67,110.61,393.64,0,712.76-319.11,712.76-712.76a707.58,707.58,0,0,0-74.41-317.12A683.53,683.53,0,0,1,1712.33,1058Z"/><circle class="cls-8" cx="1017.58" cy="1057.09" r="695.17"/></g></g></g></svg>