<svg xmlns="http://www.w3.org/2000/svg" xmlns:xlink="http://www.w3.org/1999/xlink" viewBox="0 0 310.03 310.03"><defs><style>.cls-1{isolation:isolate;}.cls-2{opacity:0.75;fill:url(#Degradado_sin_nombre_42);}.cls-3{fill:url(#linear-gradient);}.cls-4,.cls-5,.cls-7,.cls-9{fill:#fff;}.cls-4{opacity:0.31;}.cls-5{opacity:0.15;}.cls-6{opacity:0.5;}.cls-8{fill:#f97c55;opacity:0.4;}.cls-10,.cls-8{mix-blend-mode:multiply;}.cls-9{mix-blend-mode:color-dodge;opacity:0.3;}.cls-10{fill:url(#Degradado_sin_nombre_15);}</style><radialGradient id="Degradado_sin_nombre_42" cx="10278.4" cy="17297.3" r="339.42" gradientTransform="matrix(-0.39, -0.23, 0.23, -0.39, 175.92, 9353.17)" gradientUnits="userSpaceOnUse"><stop offset="0" stop-color="#f05a24"/><stop offset="1" stop-color="#f05a24" stop-opacity="0"/></radialGradient><linearGradient id="linear-gradient" x1="208.18" y1="226.15" x2="111.85" y2="86.35" gradientUnits="userSpaceOnUse"><stop offset="0" stop-color="#f97c55"/><stop offset="1" stop-color="#ffb164"/></linearGradient><linearGradient id="Degradado_sin_nombre_15" x1="-16.18" y1="-101.28" x2="117" y2="31.9" gradientTransform="translate(202.15 198.8) rotate(-100.1)" gradientUnits="userSpaceOnUse"><stop offset="0" stop-color="#fff"/><stop offset="0.04" stop-color="#efefef"/><stop offset="0.18" stop-color="#b8b8b7"/><stop offset="0.33" stop-color="#898988"/><stop offset="0.47" stop-color="#626260"/><stop offset="0.61" stop-color="#444442"/><stop offset="0.75" stop-color="#2e2e2c"/><stop offset="0.88" stop-color="#21211f"/><stop offset="1" stop-color="#1d1d1b"/></linearGradient></defs><g class="cls-1"><g id="Capa_2" data-name="Capa 2"><g id="Capa_2-2" data-name="Capa 2"><ellipse class="cls-2" cx="155.01" cy="155.01" rx="154.79" ry="155.15" transform="translate(-64.21 155.01) rotate(-45)"/><circle class="cls-3" cx="159.02" cy="154.81" r="94.13"/><path class="cls-4" d="M214.56,230.31a92.57,92.57,0,0,1-26.82,13.76,49.65,49.65,0,0,1-27-21.64c-23.33-38,19.63-52.83-24.31-65.18-27.32-7.66-30.62,12-71-8.82a93.74,93.74,0,0,1,50.72-77c15.51-.51,30.38,6.5,32.63,34,4.94,60.24,22.2,3.35,39,38,7.9,16.29-38.19,29.43-20.57,69.29C175.64,231.44,198,231.93,214.56,230.31Z"/><path class="cls-5" d="M140,240.36a42.71,42.71,0,0,0,4.9,7.19,93.81,93.81,0,0,1-66.74-45.11,50.13,50.13,0,0,0,37.17-4.86C141,183.09,130.07,222.27,140,240.36Z"/><path class="cls-4" d="M209.31,99.49c3.49-3.73,7.45-10.55,10-16.4a94.21,94.21,0,0,1,27.7,39.58,43.22,43.22,0,0,1-27.7,4.31C192.35,122.53,203.69,105.41,209.31,99.49Z"/><path class="cls-5" d="M252.71,154.83a93.59,93.59,0,0,1-32.84,71.26c-17.29,3.2-33,0-39.2-8.75-8.17-11.41-4.29-22.07,16.94-57.12s-25.56-28.8-20.39-58.94c3.35-19.69-8.72-33.2-17.47-40.2a93.16,93.16,0,0,1,52.64,16.71c0,6.51-1.25,15.64-7.37,22.19-10.61,11.36-7.08,32.92,21.39,31.93a72,72,0,0,0,22.36-4A93.86,93.86,0,0,1,252.71,154.83Z"/><g class="cls-6"><path class="cls-7" d="M191.53,80.07s-11.36,5.26-3.62,11.85,15.14,1.15,14.64-5.93S197.29,77.43,191.53,80.07Z"/><path class="cls-7" d="M184.44,104.41s-3.69,1.71-1.18,3.85,4.92.37,4.76-1.93S186.31,103.55,184.44,104.41Z"/><path class="cls-7" d="M232.06,187.37s6.8-14.71,0-22.66-31.48.69-31.23,13.78S221,207,232.06,187.37Z"/><path class="cls-7" d="M212.06,209.72s6.66-11.24,8.76-3.58.31,9.87-2.87,10.49S209,213.82,212.06,209.72Z"/><path class="cls-7" d="M134.63,117.65s-11.95-5.27-4.61-8.27,9.77-1.5,10.77,1.58S139.08,120.19,134.63,117.65Z"/><path class="cls-7" d="M207.12,198.61s4.32-3.34,4.07,0-3.76,3.7-5,2.09S207.12,198.61,207.12,198.61Z"/><path class="cls-7" d="M112,100s4.32-3.33,4.07,0-3.75,3.7-5,2.1S112,100,112,100Z"/><path class="cls-7" d="M190.83,200.33s5.55-3.58,6.54,2.1,1.23,12.47-3.27,12.22S183.67,204.9,190.83,200.33Z"/><path class="cls-7" d="M94.49,136.18s-5.4-3.81-.5-6.85,11.09-5.82,12.55-1.55S101.41,141.11,94.49,136.18Z"/><path class="cls-7" d="M106,216.7s-3.7-3.24,2-5.79,5.85,5.51,5.11,8.06S107.1,218.37,106,216.7Z"/><path class="cls-7" d="M115.68,221.9s2.16-1.91,3.21-.34.09,2.54-.9,2.84S114.26,223.14,115.68,221.9Z"/><path class="cls-7" d="M109.43,231.11s-1.27-3.7,2.8-3.25c2.55.33,3,4.53,1.53,5.1S110.42,233.87,109.43,231.11Z"/><path class="cls-7" d="M117.71,229.75s-1.86,2,0,2.14S118.47,228.51,117.71,229.75Z"/><path class="cls-7" d="M129.72,219.34s2.72-1.85,2.84,0a1.71,1.71,0,0,1-2.84,1.6C128.55,219.9,129.72,219.34,129.72,219.34Z"/></g><path class="cls-5" d="M76.73,179.18s-4.48-12.45,22.61-11.28,31.78-7.5,43,1.88-4.21,12.19-21.09,17.58-23.68,14.41-33.06,6.15S76.73,179.18,76.73,179.18Z"/><path class="cls-5" d="M146.21,73.66s-8.48-7,4.37-8.2,20.87,4.92,17.58,25.08,4.46,25.79-.7,34-14.54,3.23-12.42-11.4S156.61,81.87,146.21,73.66Z"/><path class="cls-5" d="M91.93,181.11s-9.57-9.93,5.44-9.22,20.86,0,29.3-3,19.69,5.16,12,9.38-19.47,3-27.89,10.08S98,188.22,91.93,181.11Z"/><path class="cls-5" d="M160.5,74.6s-2.65-5.16-7.34-2.35,3.67,8.21,4.84,17.59,1.33,14.3.32,19.38-1.64,12.42,3.36,11.25,6.09-6,3.28-16.88a84.26,84.26,0,0,1-3.05-21.33C161.68,76.86,160.5,74.6,160.5,74.6Z"/><path class="cls-8" d="M252.42,154.55A93.77,93.77,0,0,1,89.77,218.18,97.35,97.35,0,0,0,229.07,92.65,93.34,93.34,0,0,1,252.42,154.55Z"/><path class="cls-9" d="M153.05,88.19c9.74,10.41,5.69,30-9,43.79s-34.56,16.51-44.29,6.1-5.69-30,9-43.79S143.31,77.78,153.05,88.19Z"/><circle class="cls-10" cx="159.16" cy="155.26" r="94.17"/></g></g></g></svg>