<svg xmlns="http://www.w3.org/2000/svg" xmlns:xlink="http://www.w3.org/1999/xlink" viewBox="0 0 280.84 256.65"><defs><style>.cls-1{fill:#e94e1b;}.cls-2{fill:#68c1b4;opacity:0.2;}.cls-3{isolation:isolate;}.cls-4{fill:#b1c2b3;}.cls-5{fill:#3f616f;}.cls-6{clip-path:url(#clip-path);}.cls-12,.cls-17,.cls-24,.cls-7{fill:#fff;}.cls-16,.cls-8{fill:#161616;}.cls-9{fill:#a01846;}.cls-10{fill:#510021;}.cls-11{fill:#231f20;}.cls-12,.cls-13,.cls-16,.cls-17,.cls-18{mix-blend-mode:soft-light;}.cls-13{fill:#1a1a1a;}.cls-14{fill:#900;}.cls-15{fill:#ec4963;}.cls-17{opacity:0.69;}.cls-18{opacity:0.5;}.cls-19{clip-path:url(#clip-path-2);}.cls-20{fill:#c53a25;}.cls-20,.cls-21,.cls-22{fill-rule:evenodd;}.cls-21{fill:#bd1622;}.cls-22{fill:#8e1821;}.cls-23{fill:none;stroke:#fff;stroke-miterlimit:10;stroke-width:0.63px;}.cls-24{opacity:0.27;}.cls-25{fill:#ad0e0e;}.cls-26,.cls-27{fill:#ededed;}.cls-26{opacity:0.6;}.cls-27{opacity:0.4;}</style><clipPath id="clip-path"><path class="cls-1" d="M273.68,217.11l7.16,15.45-16.62,24.09-46-2.38-17.36-34.14-139-53.4-25.7-48.56,6.58-55.41,123.37,46.77,59.52,41.63s28.63,25.17,30.16,27.74S273.68,217.11,273.68,217.11Z"/></clipPath><clipPath id="clip-path-2"><polygon class="cls-2" points="166.08 109.53 257.72 148.42 275.32 185.34 273.68 217.11 254.66 207.72 235.64 174 180.5 144.44 166.08 109.53"/></clipPath></defs><g class="cls-3"><g id="Capa_2" data-name="Capa 2"><g id="Capa_2-2" data-name="Capa 2"><polygon class="cls-4" points="29.4 71.15 0 60.77 11.03 137.09 44.05 148.27 29.4 71.15"/><polygon class="cls-5" points="55.92 76.22 19.25 61.77 16.4 116.97 33.53 147.67 78.23 166.69 55.92 76.22"/><path class="cls-1" d="M273.68,217.11l7.16,15.45-16.62,24.09-46-2.38-17.36-34.14-139-53.4-25.7-48.56,6.58-55.41,123.37,46.77,59.52,41.63s28.63,25.17,30.16,27.74S273.68,217.11,273.68,217.11Z"/><g class="cls-6"><polygon class="cls-7" points="71.15 116.54 68.38 115.52 67.1 119.02 69.86 120.04 66.75 128.6 79.46 133.27 80.77 129.72 71.98 126.49 73.82 121.49 80.79 124.05 82.07 120.55 75.1 117.99 76.8 113.38 85.59 116.61 86.89 113.06 74.17 108.38 71.15 116.54"/><polygon class="cls-7" points="95.57 135.19 88.68 132.63 94.8 115.97 90.87 114.52 83.44 134.74 97.51 139.9 99.83 133.59 96.57 132.45 95.57 135.19"/><polygon class="cls-7" points="126.84 127.74 122.42 126.12 111.39 132 114.61 123.24 110.68 121.8 107.43 130.55 104.89 129.61 103.77 132.68 106.31 133.62 103.25 142.01 107.18 143.46 110.26 135.07 115 146.33 119.41 147.95 114.99 134.78 126.84 127.74"/><path class="cls-7" d="M139.78,132.5l-8.56-3.15-.15.41-1,2.87,5.08,1.87L122,148.91l4.08,1.5,3.12-3.66,7.51,2.76,0,4.82L141,155.9Zm-7.83,11,4.85-5.59v7.37Z"/><path class="cls-7" d="M63.09,117a4.29,4.29,0,0,0-1.72-2.57,3.91,3.91,0,0,0,2.12-1,5.42,5.42,0,0,0,1.42-2.22,5.32,5.32,0,0,0-.28-4.48,6.73,6.73,0,0,0-3.84-3.17l-4.38-1.77-3-1.1-2.95,8.18-2.72-1-1.17,3.2,2.72,1L46,121l7.3,2.84a14.69,14.69,0,0,0,3,.85,6,6,0,0,0,2.26-.19A5.6,5.6,0,0,0,61.14,123a7.25,7.25,0,0,0,1.69-2.67A5.55,5.55,0,0,0,63.09,117ZM55.8,105.66,59.47,107a2.44,2.44,0,0,1-1.69,4.58l-3.67-1.35Zm-.74,14.77-4.13-1.52,2-5.39L57,115a2.87,2.87,0,0,1-2,5.39Z"/></g><polygon class="cls-8" points="76.66 58.66 30.68 50.29 27.27 44.71 73.92 46.95 76.66 58.66"/><polygon class="cls-8" points="74.13 16.74 27.71 0 21.76 1.8 74.3 26.41 74.13 16.74"/><polygon class="cls-4" points="241.13 74.91 226.69 88.49 180.72 79.29 198.33 60.2 241.13 74.91"/><polygon class="cls-1" points="233.51 67.4 223.51 71.5 196.6 70.47 182.07 84.42 122.46 74.97 75.38 62.41 44.3 13.81 43.96 3.66 233.51 67.4"/><polygon class="cls-9" points="144.96 122.12 150.91 61.85 76.87 65.56 71.47 102.59 144.96 122.12"/><polygon class="cls-10" points="108.47 72.41 115.41 74.72 113.31 100.51 107.41 103.14 111.13 98.73 112.94 75.82 108.47 72.41"/><polygon class="cls-10" points="91.46 71.18 98.4 73.49 96.31 99.28 90.41 101.91 94.12 97.5 95.94 74.59 91.46 71.18"/><polygon class="cls-4" points="138.01 62.49 123.79 70.2 121.64 108.5 128.29 117.69 144.96 122.12 150.91 61.85 138.01 62.49"/><polygon class="cls-11" points="147.14 66.38 141.95 117.28 133.9 109.46 137.3 71.44 147.14 66.38"/><polygon class="cls-9" points="225.69 247.76 231.65 187.49 157.61 191.21 152.2 228.23 225.69 247.76"/><polygon class="cls-10" points="189.2 198.06 196.14 200.36 194.05 226.15 188.15 228.78 191.86 224.37 193.68 201.46 189.2 198.06"/><polygon class="cls-10" points="172.2 196.82 179.13 199.13 177.04 224.92 171.14 227.55 174.86 223.14 176.67 200.23 172.2 196.82"/><polygon class="cls-4" points="218.75 188.14 204.53 195.84 202.38 234.15 209.03 243.33 225.69 247.76 231.65 187.49 218.75 188.14"/><polygon class="cls-11" points="227.88 192.03 222.68 242.93 214.63 235.1 218.04 197.08 227.88 192.03"/><polygon class="cls-12" points="78.95 65.78 136.47 69.73 150.28 62.39 143.28 62.88 137.72 66.1 124.53 65.92 119.7 66.58 78.95 65.78"/><polygon class="cls-13" points="72.5 101.27 132.26 108.54 144.02 120.97 72.5 101.27"/><polygon class="cls-13" points="93.5 104.64 131.55 110.2 137.05 115.94 131.11 112.37 93.5 104.64"/><polygon class="cls-12" points="159.95 191.73 217.47 195.67 231.28 188.33 224.28 188.82 218.72 192.04 205.53 191.86 200.7 192.53 159.95 191.73"/><polygon class="cls-13" points="153.51 227.21 213.26 234.48 225.03 246.92 153.51 227.21"/><polygon class="cls-13" points="174.5 230.58 212.55 236.15 218.05 241.89 212.12 238.32 174.5 230.58"/><polygon class="cls-14" points="193.37 188.93 55.12 213.79 8.35 199.99 69.02 175.29 83.89 176.57 125.27 154.63 182.26 174.76 193.37 188.93"/><path class="cls-15" d="M56.23,206.66,37.76,175l-11.8-4-1.79,24.82S25.78,204.09,56.23,206.66Z"/><polygon class="cls-16" points="228.48 84.83 225.27 87.67 188.03 80.17 192.98 75.83 228.48 84.83"/><polygon class="cls-16" points="186.63 77.37 181.28 83.26 150.07 78.31 150.76 70.65 186.63 77.37"/><polygon class="cls-16" points="115.11 62.89 71.06 52.59 75.94 60.87 86.07 63.89 115.11 62.89"/><polygon class="cls-13" points="148.15 103.72 145.77 124.17 71.42 103.5 150.49 129.44 151.75 105.07 148.15 103.72"/><polygon class="cls-17" points="180.33 175.95 189.71 188.23 55.96 211.91 52.83 211.75 180.33 175.95"/><path class="cls-17" d="M52.34,204.93,36.73,175.82l-1.94-.45,8.81,28.26A34.14,34.14,0,0,0,52.34,204.93Z"/><polygon class="cls-12" points="73.79 76.35 43.92 65.14 43.42 74.78 72.38 84.85 73.79 76.35"/><polygon class="cls-12" points="40.45 71.71 20.84 64.9 20.34 74.55 38.86 81.32 40.45 71.71"/><polygon class="cls-12" points="17.93 68.48 1.7 62.78 6.03 91.66 16.54 95.32 17.93 68.48"/><polygon class="cls-18" points="18.31 122.62 9.04 119.19 11.62 136.43 30.1 142.98 18.31 122.62"/><polygon class="cls-18" points="18.57 117.52 38.5 124.87 55.71 156 34.64 147.12 18.57 117.52"/><polygon class="cls-18" points="43.84 130.74 116.71 157.81 85.11 174.1 63.3 165.92 43.84 130.74"/><polygon class="cls-18" points="228.63 230.51 266.58 249.63 263.07 255.15 219.21 253.27 215.6 246.38 226.77 249.14 228.63 230.51"/><polygon class="cls-18" points="113.6 157.65 85.09 172.74 64.18 165.44 62.25 161.87 85.04 169.68 113.6 157.65"/><polygon class="cls-12" points="233.12 152.71 236.17 171.12 222.1 163.44 220.28 147.44 233.12 152.71"/><polygon class="cls-12" points="218.04 161.79 216.66 145.84 211.93 144.02 213.56 159.18 218.04 161.79"/><polygon class="cls-12" points="270.69 182.1 266.96 181.9 261.94 172.45 254.96 152.81 257.54 151.18 270.69 182.1"/><polygon class="cls-12" points="267.21 193.34 271.83 214.57 266.26 211.69 267.21 193.34"/><polygon class="cls-13" points="193.3 190.24 157.84 196.44 156.9 206.05 196.18 190.39 193.3 190.24"/><polygon class="cls-13" points="189.54 191.42 158.63 197.3 158.41 201.45 189.54 191.42"/><polygon class="cls-2" points="166.08 109.53 257.72 148.42 275.32 185.34 273.68 217.11 254.66 207.72 235.64 174 180.5 144.44 166.08 109.53"/><g class="cls-19"><path class="cls-20" d="M229.92,196.22c-.5,4.14,1.66,6.12,5.09,6.73l6.34-.28c1.58-.87,0-2.81-2.57-3.6.42-6.44-7.53-5.06-8.86-2.85Z"/><path class="cls-21" d="M246.55,195.25l-.19,3.93c2,1.34,1.58,2.64.16,3.26l-3.78.17a1.39,1.39,0,0,1-.7-.64c-.35-1-.6-1.95-.82-2.72-2.31-8.18,5-10.07,5.33-4Z"/><path class="cls-21" d="M234.33,180.64s-3.53,9.2-7.36,13.17,1,7.64,4.34,8.39C248.45,206,251.6,179.92,248.45,178c-.85-.51-14.12,2.63-14.12,2.63Z"/><path class="cls-22" d="M231.59,202.25C240,204,245,198.44,247.51,192.2a14.18,14.18,0,0,1-4.63,3.57c-6.95,3.29-11.55,0-11.55,0-2.16,1.81-2,4.65.26,6.44Z"/><path class="cls-21" d="M225.73,197.17c-.51,3.16,1.82,6.11,6,5.92l6.38-.28c1.74-.79,0-2.51-2.77-3.18.51-5.75-8.18-4.44-9.65-2.46Z"/><path class="cls-21" d="M240.89,193l1.28,5.06c2.58,1.63,3,3.24,2,4.15l-4,.58a2.1,2.1,0,0,1-.88-.77c-.66-1.23-1.25-2.48-1.73-3.46-5.08-10.43.81-13.4,3.31-5.56Z"/><path class="cls-21" d="M234.45,179.16a22.14,22.14,0,0,1-1,3.62c1.32,1.36,6,5.18,15.63,3.95.81-4.34.48-8-.63-8.72-.85-.51-12.74,1-12.74,1Z"/><path class="cls-21" d="M252.52,168.57c-.52-.69-1.8-4.65-5-6.22s-10.91.11-12.19,4.82-.92,12-.92,12c2.08,3.84,7.46,5.19,14.8,4,0,0-5.19-5.59,5-8.6,4-1.17-.29-.06-2.65-1.39s.12-4.8.12-4.79Z"/><path class="cls-21" d="M252.1,167.84s.34,1.51,3.72,1.38,4.83.33,4.64,1.76a9.66,9.66,0,0,1-2,4.45,5.08,5.08,0,0,1-4.27,2.94,11.47,11.47,0,0,0-2.78,2.37,8.12,8.12,0,0,0-2.25,3.54l-8.76-4.9-.18-5.11,1.21-4.83,1.91-2.38"/><path class="cls-21" d="M235.76,168.88s-4.33-10-2.46-10.52,7.1,5.64,7.1,5.64A27.07,27.07,0,0,0,235.76,168.88Z"/><path class="cls-21" d="M243.24,162.4s3.26-8.32,4.26-7,.65,8,.65,8A7.12,7.12,0,0,0,243.24,162.4Z"/><path class="cls-21" d="M227,194.49a.4.4,0,0,0,0-.68c-.47-.39-1.82-.88-1.51-2.14.6-2.44,2.34-9.43-4.85-11.52,0,0,1.51,1.73,1.07,3.39C221.28,185,216.63,193.12,227,194.49Z"/><circle class="cls-23" cx="246.6" cy="167.58" r="17.72" transform="translate(-42.39 240.92) rotate(-48.44)"/><circle class="cls-24" cx="246.6" cy="167.58" r="17.72" transform="translate(-42.39 240.92) rotate(-48.44)"/><path class="cls-7" d="M232.27,159.74l.49,2s-3.47,6.29-1.44,11.7C231.32,173.49,227.92,166.17,232.27,159.74Z"/></g><polyline class="cls-25" points="170.99 121.41 249.68 154.41 266.03 183.93 264.55 212.6 261.98 211.33 263.53 184.01 247.69 156.18 172.47 125.01 171.36 122.3"/><polygon class="cls-25" points="249.68 155.21 258.25 149.53 257.72 148.42 256.49 147.9 247.65 154.12 249.68 155.21"/><polygon class="cls-25" points="264.71 183.24 274.56 183.75 275.32 185.34 275.26 186.59 264.59 185.63 264.71 183.24"/><polygon class="cls-26" points="269.04 232.13 261 240.31 252.97 232.13 269.04 232.13"/><polygon class="cls-26" points="252.97 232.13 269.04 232.13 269.04 218.98 252.97 232.13"/><polygon class="cls-26" points="269.04 232.13 252.97 232.13 252.97 218.98 269.04 232.13"/><polygon class="cls-27" points="260.96 240.21 252.97 232.13 252.97 218.98 260.96 240.21"/><polygon class="cls-27" points="261.05 240.21 269.04 232.13 269.04 218.98 261.05 240.21"/><polygon class="cls-1" points="257.92 232.13 261 236.22 264.09 232.13 257.92 232.13"/></g></g></g></svg>